<?xml version="1.0" encoding="UTF-8" standalone="no"?>
<svg
   height="36"
   width="36"
   version="1.1"
   id="svg21"
   sodipodi:docname="acc.svg"
   inkscape:version="1.1.2 (0a00cf5339, 2022-02-04)"
   xmlns:inkscape="http://www.inkscape.org/namespaces/inkscape"
   xmlns:sodipodi="http://sodipodi.sourceforge.net/DTD/sodipodi-0.dtd"
   xmlns="http://www.w3.org/2000/svg"
   xmlns:svg="http://www.w3.org/2000/svg">
  <defs
     id="defs25" />
  <sodipodi:namedview
     id="namedview23"
     pagecolor="#ffffff"
     bordercolor="#666666"
     borderopacity="1.0"
     inkscape:pageshadow="2"
     inkscape:pageopacity="0.0"
     inkscape:pagecheckerboard="0"
     showgrid="false"
     inkscape:zoom="10.709721"
     inkscape:cx="47.106734"
     inkscape:cy="11.998445"
     inkscape:window-width="1920"
     inkscape:window-height="1026"
     inkscape:window-x="0"
     inkscape:window-y="28"
     inkscape:window-maximized="1"
     inkscape:current-layer="svg21"
     width="36px"
     inkscape:snap-page="true"
     inkscape:snap-bbox="true"
     inkscape:bbox-paths="true"
     inkscape:bbox-nodes="true"
     inkscape:snap-bbox-edge-midpoints="true"
     inkscape:snap-bbox-midpoints="true"
     inkscape:snap-global="false" />
  <linearGradient
     gradientUnits="userSpaceOnUse"
     x1="0"
     x2="47"
     y1="23.5"
     y2="23.5"
     id="linearGradient8">
    <stop
       offset="0"
       stop-color="#a9a3d4"
       id="stop2" />
    <stop
       offset=".47001833"
       stop-color="#87baff"
       id="stop4" />
    <stop
       offset="1"
       stop-color="#89ec85"
       id="stop6" />
  </linearGradient>
  <linearGradient
     id="a"
     gradientUnits="userSpaceOnUse"
     x1="408.57138"
     x2="408.57138"
     y1="543.7981"
     y2="503.79807"
     gradientTransform="matrix(1.1,0,0,1.1,-425.42858,-552.1778)">
    <stop
       offset="0"
       stop-color="#97a9b1"
       id="stop10" />
    <stop
       offset="1"
       stop-color="#cfdce1"
       id="stop12" />
  </linearGradient>
  <rect
     style="fill:#e7e8eb;fill-opacity:1;opacity:0"
     id="rect850"
     width="36"
     height="36"
     x="0"
     y="0" />
  <circle
     cx="76.682495"
     cy="-0.55257571"
     fill="url(#a)"
     r="0"
     id="circle844"
     style="fill:#d45500;stroke-width:1.5517" />
  <circle
     cx="10.383885"
     cy="-0.46790805"
     fill="url(#a)"
     r="0"
     id="circle850"
     style="fill:#d45500;stroke-width:2.54086" />
  <path
     d="m 15.25,12.5 h 5.5 c 0.60751,0 1.1,0.49249 1.1,1.1 v 8.8 c 0,0.607513 -0.49249,1.1 -1.1,1.1 -1.83333,0 -3.66667,0 -5.5,0 -0.60751,0 -1.1,-0.492487 -1.1,-1.1 0,-2.93333 0,-5.86667 0,-8.8 0,-0.60751 0.49249,-1.1 1.1,-1.1 m 0,1.1 v 2.2 h 5.5 c 0,-0.73333 0,-1.46667 0,-2.2 -1.83333,0 -3.66667,0 -5.5,0 m 0,3.3 V 18 h 1.1 c 0,-0.36667 0,-0.73333 0,-1.1 -0.36667,0 -0.73333,0 -1.1,0 m 2.2,0 V 18 h 1.1 c 0,-0.36667 0,-0.73333 0,-1.1 -0.36667,0 -0.73333,0 -1.1,0 m 2.2,0 V 18 h 1.1 c 0,-0.36667 0,-0.73333 0,-1.1 -0.36667,0 -0.73333,0 -1.1,0 m -4.4,2.2 v 1.1 h 1.1 c 0,-0.36667 0,-0.73333 0,-1.1 -0.36667,0 -0.73333,0 -1.1,0 m 2.2,0 v 1.1 h 1.1 c 0,-0.36667 0,-0.73333 0,-1.1 -0.36667,0 -0.73333,0 -1.1,0 m 2.2,0 v 1.1 h 1.1 c 0,-0.36667 0,-0.73333 0,-1.1 -0.36667,0 -0.73333,0 -1.1,0 m -4.4,2.2 v 1.1 h 1.1 c 0,-0.366667 0,-0.733333 0,-1.1 -0.36667,0 -0.73333,0 -1.1,0 m 2.2,0 v 1.1 h 1.1 c 0,-0.366667 0,-0.733333 0,-1.1 -0.36667,0 -0.73333,0 -1.1,0 m 2.2,0 v 1.1 h 1.1 c 0,-0.366667 0,-0.733333 0,-1.1 -0.36667,0 -0.73333,0 -1.1,0 z"
     fill="#bebebe"
     stroke-width="0.55"
     id="path831-3"
     style="fill:#3b4252;fill-opacity:1" />
</svg>
