<?xml version="1.0" encoding="UTF-8" standalone="no"?>
<svg
   height="36"
   width="36"
   version="1.1"
   id="svg21"
   sodipodi:docname="game.svg"
   inkscape:version="1.1.2 (0a00cf5339, 2022-02-04)"
   xmlns:inkscape="http://www.inkscape.org/namespaces/inkscape"
   xmlns:sodipodi="http://sodipodi.sourceforge.net/DTD/sodipodi-0.dtd"
   xmlns="http://www.w3.org/2000/svg"
   xmlns:svg="http://www.w3.org/2000/svg">
  <defs
     id="defs25" />
  <sodipodi:namedview
     id="namedview23"
     pagecolor="#ffffff"
     bordercolor="#666666"
     borderopacity="1.0"
     inkscape:pageshadow="2"
     inkscape:pageopacity="0.0"
     inkscape:pagecheckerboard="0"
     showgrid="false"
     inkscape:zoom="3.7864583"
     inkscape:cx="34.729024"
     inkscape:cy="-14.657497"
     inkscape:window-width="1920"
     inkscape:window-height="1026"
     inkscape:window-x="0"
     inkscape:window-y="28"
     inkscape:window-maximized="1"
     inkscape:current-layer="svg21"
     width="36px"
     inkscape:snap-page="true" />
  <linearGradient
     gradientUnits="userSpaceOnUse"
     x1="0"
     x2="47"
     y1="23.5"
     y2="23.5"
     id="linearGradient8">
    <stop
       offset="0"
       stop-color="#a9a3d4"
       id="stop2" />
    <stop
       offset=".47001833"
       stop-color="#87baff"
       id="stop4" />
    <stop
       offset="1"
       stop-color="#89ec85"
       id="stop6" />
  </linearGradient>
  <linearGradient
     id="a"
     gradientUnits="userSpaceOnUse"
     x1="408.57138"
     x2="408.57138"
     y1="543.7981"
     y2="503.79807"
     gradientTransform="matrix(1.1,0,0,1.1,-425.42858,-552.1778)">
    <stop
       offset="0"
       stop-color="#97a9b1"
       id="stop10" />
    <stop
       offset="1"
       stop-color="#cfdce1"
       id="stop12" />
  </linearGradient>
  <rect
     style="fill:#e7e8eb;fill-opacity:1;opacity:0"
     id="rect850"
     width="36"
     height="36"
     x="0"
     y="0" />
  <circle
     cx="76.682495"
     cy="-0.55257571"
     fill="url(#a)"
     r="0"
     id="circle844"
     style="fill:#d45500;stroke-width:1.5517" />
  <circle
     cx="10.383885"
     cy="-0.46790805"
     fill="url(#a)"
     r="0"
     id="circle850"
     style="fill:#d45500;stroke-width:2.54086" />
  <style
     type="text/css"
     id="style831">
	.st0{fill:none;stroke:#000000;stroke-width:2;stroke-linecap:round;stroke-linejoin:round;stroke-miterlimit:10;}
</style>
  <g
     id="g837"
     transform="matrix(0.46233664,0,0,0.46233664,10.625731,10.092237)"
     style="fill:#3b4252;fill-opacity:1">
	<circle
   cx="23"
   cy="14"
   r="1"
   id="circle833"
   style="fill:#3b4252;fill-opacity:1" />

	<path
   d="m 31.9,24.8 c 0,0 0,0 0,0 L 29,9.9 C 28.7,8.3 27.7,6.9 26.3,6.1 24,4.7 21.1,5.1 19.3,7 L 18.1,8 H 13.8 L 12.7,6.9 C 10.8,5 7.9,4.7 5.7,6 4.3,6.9 3.4,8.3 3,9.9 L 0,24.8 c -0.2,1 0.1,2.1 0.7,2.9 0.8,0.8 1.8,1.3 2.8,1.3 0.9,0 1.7,-0.4 2.3,-1 L 9.6,23.7 C 11,22 13.2,21 15.4,21 h 1.1 c 2.3,0 4.4,1 5.9,2.7 l 3.8,4.3 c 0.6,0.7 1.4,1 2.3,1 1.1,0 2.1,-0.5 2.7,-1.3 0.6,-0.8 0.9,-1.9 0.7,-2.9 z M 11,15 h -1 v 1 C 10,16.6 9.6,17 9,17 8.4,17 8,16.6 8,16 V 15 H 7 C 6.4,15 6,14.6 6,14 6,13.4 6.4,13 7,13 h 1 v -1 c 0,-0.6 0.4,-1 1,-1 0.6,0 1,0.4 1,1 v 1 h 1 c 0.6,0 1,0.4 1,1 0,0.6 -0.4,1 -1,1 z m 6,2 h -2 c -0.6,0 -1,-0.4 -1,-1 0,-0.6 0.4,-1 1,-1 h 2 c 0.6,0 1,0.4 1,1 0,0.6 -0.4,1 -1,1 z m 0,-3 h -2 c -0.6,0 -1,-0.4 -1,-1 0,-0.6 0.4,-1 1,-1 h 2 c 0.6,0 1,0.4 1,1 0,0.6 -0.4,1 -1,1 z m 6,3 c -1.7,0 -3,-1.3 -3,-3 0,-1.7 1.3,-3 3,-3 1.7,0 3,1.3 3,3 0,1.7 -1.3,3 -3,3 z"
   id="path835"
   style="fill:#3b4252;fill-opacity:1" />

</g>
</svg>
