<?xml version="1.0" encoding="UTF-8" standalone="no"?>
<svg
   height="36"
   width="36"
   version="1.1"
   id="svg21"
   sodipodi:docname="graph.svg"
   inkscape:version="1.1.2 (0a00cf5339, 2022-02-04)"
   xmlns:inkscape="http://www.inkscape.org/namespaces/inkscape"
   xmlns:sodipodi="http://sodipodi.sourceforge.net/DTD/sodipodi-0.dtd"
   xmlns="http://www.w3.org/2000/svg"
   xmlns:svg="http://www.w3.org/2000/svg">
  <defs
     id="defs25" />
  <sodipodi:namedview
     id="namedview23"
     pagecolor="#ffffff"
     bordercolor="#666666"
     borderopacity="1.0"
     inkscape:pageshadow="2"
     inkscape:pageopacity="0.0"
     inkscape:pagecheckerboard="0"
     showgrid="false"
     inkscape:zoom="15.145833"
     inkscape:cx="32.253095"
     inkscape:cy="20.038515"
     inkscape:window-width="1920"
     inkscape:window-height="1026"
     inkscape:window-x="0"
     inkscape:window-y="28"
     inkscape:window-maximized="1"
     inkscape:current-layer="svg21"
     width="36px"
     inkscape:snap-page="true" />
  <linearGradient
     gradientUnits="userSpaceOnUse"
     x1="0"
     x2="47"
     y1="23.5"
     y2="23.5"
     id="linearGradient8">
    <stop
       offset="0"
       stop-color="#a9a3d4"
       id="stop2" />
    <stop
       offset=".47001833"
       stop-color="#87baff"
       id="stop4" />
    <stop
       offset="1"
       stop-color="#89ec85"
       id="stop6" />
  </linearGradient>
  <linearGradient
     id="a"
     gradientUnits="userSpaceOnUse"
     x1="408.57138"
     x2="408.57138"
     y1="543.7981"
     y2="503.79807"
     gradientTransform="matrix(1.1,0,0,1.1,-425.42858,-552.1778)">
    <stop
       offset="0"
       stop-color="#97a9b1"
       id="stop10" />
    <stop
       offset="1"
       stop-color="#cfdce1"
       id="stop12" />
  </linearGradient>
  <rect
     style="fill:#e7e8eb;fill-opacity:1;opacity:0"
     id="rect850"
     width="36"
     height="36"
     x="0"
     y="0" />
  <circle
     cx="76.682495"
     cy="-0.55257571"
     fill="url(#a)"
     r="0"
     id="circle844"
     style="fill:#d45500;stroke-width:1.5517" />
  <circle
     cx="10.383885"
     cy="-0.46790805"
     fill="url(#a)"
     r="0"
     id="circle850"
     style="fill:#d45500;stroke-width:2.54086" />
  <path
     id="path4"
     d="m 21.471622,12.500794 c -0.0592,0.0049 -0.1202,0.03246 -0.16911,0.08133 l -1.27859,1.278291 c -0.098,0.09798 -0.10998,0.244892 -0.0273,0.327782 l 1.81508,1.815235 c 0.0412,0.04133 0.0991,0.05897 0.15822,0.05402 0.0594,-0.005 0.12015,-0.03238 0.16941,-0.08149 l 1.27845,-1.278598 c 0.0977,-0.09782 0.11005,-0.244432 0.027,-0.327323 l -1.81492,-1.814928 c -0.0415,-0.04148 -0.099,-0.05923 -0.15822,-0.05432 z m -8.47677,0.09484 c -0.10764,-0.0019 -0.21174,0.04019 -0.28819,0.116166 -0.0767,0.0759 -0.11933,0.179473 -0.11847,0.287271 0.003,0.401805 0.35574,1.126886 0.99302,2.041122 0.60655,0.870159 1.43985,1.870075 2.39054,2.872702 l -1.8071,1.807255 c -0.0981,0.09798 -0.11021,0.244432 -0.0272,0.327323 l 1.81524,1.815081 c 0.0413,0.04172 0.0986,0.0592 0.15806,0.05417 0.0591,-0.0049 0.12039,-0.03254 0.16926,-0.08133 l 1.84209,-1.84209 c 0.16083,0.14229 0.32041,0.280539 0.47771,0.413872 0.073,0.06183 0.16468,0.09499 0.25888,0.09499 0.0213,0 0.0428,-0.0017 0.0642,-0.0051 0.11557,-0.01878 0.21725,-0.08727 0.27806,-0.187371 0.10748,-0.176624 0.24748,-0.351834 0.41648,-0.520523 0.21182,-0.212217 0.44769,-0.378258 0.70068,-0.493362 0.11401,-0.05201 0.19724,-0.154432 0.22466,-0.276529 0.0275,-0.122176 -0.004,-0.250189 -0.0841,-0.346044 -0.15086,-0.179374 -0.30878,-0.361766 -0.47127,-0.545383 l 1.42039,-1.420239 c 0.0468,-0.04691 0.0764,-0.108127 0.0812,-0.169569 0.005,-0.06121 -0.0146,-0.118229 -0.0542,-0.157906 l -1.81523,-1.814928 c -0.083,-0.08313 -0.22943,-0.07097 -0.32732,0.02701 l -1.38525,1.385404 c -0.92901,-0.880687 -1.86195,-1.666417 -2.68426,-2.257496 -0.57898,-0.416105 -1.63822,-1.115571 -2.22788,-1.124528 z m 8.32807,7.035512 c -0.46654,0 -0.91191,0.198884 -1.28826,0.575154 -0.45162,0.451618 -0.64882,0.925275 -0.57025,1.370058 0.078,0.440304 0.42795,0.834997 0.96018,1.08202 0.45783,0.212688 0.87505,0.278617 1.243,0.336837 0.3875,0.06113 0.75313,0.11905 1.07849,0.339752 0.0673,0.04596 0.146,0.06936 0.22496,0.06936 0.0555,0 0.11126,-0.01157 0.16343,-0.03499 0.12674,-0.05649 0.21525,-0.174783 0.23387,-0.312437 0.13946,-1.04034 -0.0601,-1.974734 -0.56195,-2.630241 -0.38727,-0.505595 -0.9279,-0.795517 -1.48347,-0.795517 z m -7.66729,0.816387 c -0.0295,-0.0014 -0.0606,0.0031 -0.0913,0.01366 -0.0819,0.02821 -0.14935,0.09621 -0.17725,0.178316 l -0.87362,2.587734 c -0.0277,0.08148 -0.0115,0.164099 0.0419,0.217447 0.0402,0.04062 0.0973,0.05966 0.15791,0.05448 0.0195,-0.0016 0.0395,-0.0057 0.0594,-0.01258 l 2.58758,-0.87378 c 0.082,-0.02781 0.15035,-0.09545 0.17847,-0.177242 0.0284,-0.08179 0.0127,-0.165469 -0.041,-0.219289 l -1.71411,-1.714107 c -0.0336,-0.03359 -0.0788,-0.05224 -0.12798,-0.05463 z"
     style="fill:#3b4252;fill-opacity:1;stroke-width:0.0785696" />
</svg>
