<?xml version="1.0" encoding="UTF-8" standalone="no"?>
<svg
   height="36"
   width="36"
   version="1.1"
   id="svg21"
   sodipodi:docname="sys.svg"
   inkscape:version="1.1.2 (0a00cf5339, 2022-02-04)"
   xmlns:inkscape="http://www.inkscape.org/namespaces/inkscape"
   xmlns:sodipodi="http://sodipodi.sourceforge.net/DTD/sodipodi-0.dtd"
   xmlns="http://www.w3.org/2000/svg"
   xmlns:svg="http://www.w3.org/2000/svg">
  <defs
     id="defs25" />
  <sodipodi:namedview
     id="namedview23"
     pagecolor="#ffffff"
     bordercolor="#666666"
     borderopacity="1.0"
     inkscape:pageshadow="2"
     inkscape:pageopacity="0.0"
     inkscape:pagecheckerboard="0"
     showgrid="false"
     inkscape:zoom="10.709721"
     inkscape:cx="47.106734"
     inkscape:cy="11.998445"
     inkscape:window-width="1920"
     inkscape:window-height="1026"
     inkscape:window-x="0"
     inkscape:window-y="28"
     inkscape:window-maximized="1"
     inkscape:current-layer="svg21"
     width="36px"
     inkscape:snap-page="true"
     inkscape:snap-bbox="true"
     inkscape:bbox-paths="true"
     inkscape:bbox-nodes="true"
     inkscape:snap-bbox-edge-midpoints="true"
     inkscape:snap-bbox-midpoints="true"
     inkscape:snap-global="false" />
  <linearGradient
     gradientUnits="userSpaceOnUse"
     x1="0"
     x2="47"
     y1="23.5"
     y2="23.5"
     id="linearGradient8">
    <stop
       offset="0"
       stop-color="#a9a3d4"
       id="stop2" />
    <stop
       offset=".47001833"
       stop-color="#87baff"
       id="stop4" />
    <stop
       offset="1"
       stop-color="#89ec85"
       id="stop6" />
  </linearGradient>
  <linearGradient
     id="a"
     gradientUnits="userSpaceOnUse"
     x1="408.57138"
     x2="408.57138"
     y1="543.7981"
     y2="503.79807"
     gradientTransform="matrix(1.1,0,0,1.1,-425.42858,-552.1778)">
    <stop
       offset="0"
       stop-color="#97a9b1"
       id="stop10" />
    <stop
       offset="1"
       stop-color="#cfdce1"
       id="stop12" />
  </linearGradient>
  <rect
     style="fill:#e7e8eb;fill-opacity:1;opacity:0"
     id="rect850"
     width="36"
     height="36"
     x="0"
     y="0" />
  <circle
     cx="76.682495"
     cy="-0.55257571"
     fill="url(#a)"
     r="0"
     id="circle844"
     style="fill:#d45500;stroke-width:1.5517" />
  <circle
     cx="10.383885"
     cy="-0.46790805"
     fill="url(#a)"
     r="0"
     id="circle850"
     style="fill:#d45500;stroke-width:2.54086" />
  <path
     id="path4"
     d="m 13.05,12.5 c -0.60753,0 -1.1,0.49247 -1.1,1.1 v 1.44375 h 12.1 V 13.6 c 0,-0.60753 -0.49225,-1.1 -1.1,-1.1 H 18 Z m -0.04082,0.551074 A 0.55,0.55 0 0 1 13.6,13.6 a 0.55,0.55 0 0 1 -1.1,0 0.55,0.55 0 0 1 0.50918,-0.548926 z m 1.65,0 A 0.55,0.55 0 0 1 15.25,13.6 a 0.55,0.55 0 0 1 -1.1,0 0.55,0.55 0 0 1 0.50918,-0.548926 z m 1.65,0 A 0.55,0.55 0 0 1 16.9,13.6 a 0.55,0.55 0 0 1 -1.1,0 0.55,0.55 0 0 1 0.50918,-0.548926 z M 11.95,15.25 v 0.55 1.1 0.55 0.55 0.55 0.55 1.1 0.55 1.1 0.55 c 0,0.60775 0.49247,1.1 1.1,1.1 H 18 22.95 c 0.60775,0 1.1,-0.49225 1.1,-1.1 v -0.55 -1.1 -2.2 -1.1 -1.65 -0.55 z m 5.573047,0.55 h 0.953906 0.103125 c 0.03135,0.055 0.04826,0.05457 0.05156,0.10957 l 0.120313,0.770215 c 0.14025,0.055 0.269569,0.109355 0.386719,0.164355 l 0.610156,-0.439355 c 0.02585,-0.055 0.06023,-0.05479 0.103125,-0.05479 0.0374,0 0.07277,-2.15e-4 0.107422,0.05479 0.36905,0.33 0.605584,0.604355 0.708984,0.714355 0.0198,0.055 0.03008,0.05565 0.03008,0.110645 0,0.055 -0.01128,0.05457 -0.03437,0.10957 -0.0429,0.055 -0.115741,0.165 -0.219141,0.275 -0.10285,0.11 -0.180882,0.22 -0.232032,0.275 0.07425,0.165 0.133271,0.330431 0.176173,0.44043 l 0.786327,0.10957 c 0.03685,0 0.06713,0.05479 0.09023,0.05479 0.02255,0.055 0.03437,0.05565 0.03437,0.110644 v 0.934571 c 0,0.055 -0.01183,0.110644 -0.03437,0.110644 -0.0231,0.055 -0.05129,0.05479 -0.08594,0.05479 l -0.794923,0.109571 c -0.05445,0.165 -0.109829,0.33043 -0.167577,0.440429 0.100648,0.110001 0.253515,0.330001 0.459765,0.55 0.0286,0.055 0.04297,0.109571 0.04297,0.109571 0,0.055 -0.01282,0.110644 -0.03867,0.110644 -0.07755,0.110001 -0.219141,0.274142 -0.425391,0.494142 -0.20625,0.165 -0.340656,0.275 -0.403906,0.275 -0.0341,0 -0.07157,2.14e-4 -0.111719,-0.05479 l -0.592969,-0.439364 c -0.12595,0.055 -0.256265,0.109355 -0.391015,0.164355 -0.04565,0.385 -0.08776,0.660216 -0.12461,0.770216 -0.02035,0.11 -0.07164,0.165429 -0.154687,0.165429 h -0.953906 c -0.04015,0 -0.07607,-0.05586 -0.107422,-0.05586 -0.0286,0 -0.04452,-0.05457 -0.04727,-0.10957 l -0.120312,-0.770216 c -0.14025,-0.055 -0.269459,-0.109355 -0.386719,-0.164355 l -0.60586,0.439355 c -0.02866,0.055 -0.06447,0.05479 -0.107421,0.05479 -0.0401,0 -0.07591,2.14e-4 -0.107422,-0.05479 -0.360966,-0.33 -0.597225,-0.549355 -0.708985,-0.714356 -0.02002,0 -0.03008,-0.05565 -0.03008,-0.110644 0,0 0.0115,-0.05457 0.03438,-0.109571 0.04301,-0.055 0.116015,-0.11 0.21914,-0.275 0.103125,-0.109999 0.180441,-0.219999 0.232031,-0.275 -0.07738,-0.164994 -0.136018,-0.275425 -0.176168,-0.440425 l -0.786329,-0.10957 c -0.03729,0 -0.0673,2.15e-4 -0.09023,-0.05479 -0.02294,-0.055 -0.03438,-0.05564 -0.03438,-0.110645 v -0.93457 c 0,-0.055 0.01144,-0.05564 0.03438,-0.110644 0.02293,-0.055 0.05012,-0.05479 0.08164,-0.05479 l 0.799215,-0.10957 c 0.0401,-0.164999 0.09597,-0.275644 0.167579,-0.385644 -0.114566,-0.165 -0.267816,-0.384786 -0.459766,-0.604786 -0.02866,-0.055 -0.04297,-0.05457 -0.04297,-0.10957 0,-0.055 0.01288,-0.05564 0.03867,-0.110645 0.07447,-0.11 0.214843,-0.274355 0.421093,-0.439355 0.209111,-0.22 0.345174,-0.329785 0.408204,-0.329785 0.03723,0 0.07448,-2.15e-4 0.111718,0.05479 l 0.592969,0.439355 c 0.12584,-0.055 0.256266,-0.109355 0.391016,-0.164355 0.04565,-0.385 0.08721,-0.660215 0.124609,-0.770215 0.0198,-0.11 0.07164,-0.10957 0.154688,-0.10957 z M 18,18 c -0.3036,0 -0.562685,0.11 -0.777735,0.275 -0.21505,0.22 -0.322266,0.495 -0.322265,0.825 0,0.275 0.107215,0.549141 0.322265,0.769141 C 17.437315,20.089141 17.6964,20.2 18,20.2 c 0.303599,0 0.563234,-0.110859 0.777734,-0.330859 C 18.992784,19.649141 19.099999,19.375 19.1,19.1 19.1,18.77 18.992784,18.495 18.777734,18.275 18.563234,18.11 18.303599,18 18,18 Z"
     style="fill:#3b4252;fill-opacity:1;stroke-width:0.55" />
</svg>
