<?xml version="1.0" encoding="UTF-8" standalone="no"?>
<svg
   height="36"
   width="36"
   version="1.1"
   id="svg21"
   sodipodi:docname="ooo-web.svg"
   inkscape:version="1.1.2 (0a00cf5339, 2022-02-04)"
   xmlns:inkscape="http://www.inkscape.org/namespaces/inkscape"
   xmlns:sodipodi="http://sodipodi.sourceforge.net/DTD/sodipodi-0.dtd"
   xmlns="http://www.w3.org/2000/svg"
   xmlns:svg="http://www.w3.org/2000/svg">
  <defs
     id="defs25" />
  <sodipodi:namedview
     id="namedview23"
     pagecolor="#ffffff"
     bordercolor="#666666"
     borderopacity="1.0"
     inkscape:pageshadow="2"
     inkscape:pageopacity="0.0"
     inkscape:pagecheckerboard="0"
     showgrid="false"
     inkscape:zoom="7.5729165"
     inkscape:cx="49.584595"
     inkscape:cy="-6.6685008"
     inkscape:window-width="1920"
     inkscape:window-height="1026"
     inkscape:window-x="0"
     inkscape:window-y="28"
     inkscape:window-maximized="1"
     inkscape:current-layer="svg21"
     width="36px"
     inkscape:snap-page="true" />
  <linearGradient
     gradientUnits="userSpaceOnUse"
     x1="0"
     x2="47"
     y1="23.5"
     y2="23.5"
     id="linearGradient8">
    <stop
       offset="0"
       stop-color="#a9a3d4"
       id="stop2" />
    <stop
       offset=".47001833"
       stop-color="#87baff"
       id="stop4" />
    <stop
       offset="1"
       stop-color="#89ec85"
       id="stop6" />
  </linearGradient>
  <linearGradient
     id="a"
     gradientUnits="userSpaceOnUse"
     x1="408.57138"
     x2="408.57138"
     y1="543.7981"
     y2="503.79807"
     gradientTransform="matrix(1.1,0,0,1.1,-425.42858,-552.1778)">
    <stop
       offset="0"
       stop-color="#97a9b1"
       id="stop10" />
    <stop
       offset="1"
       stop-color="#cfdce1"
       id="stop12" />
  </linearGradient>
  <rect
     style="fill:#e7e8eb;fill-opacity:1;opacity:0"
     id="rect850"
     width="36"
     height="36"
     x="0"
     y="0" />
  <circle
     cx="76.682495"
     cy="-0.55257571"
     fill="url(#a)"
     r="0"
     id="circle844"
     style="fill:#d45500;stroke-width:1.5517" />
  <circle
     cx="10.383885"
     cy="-0.46790805"
     fill="url(#a)"
     r="0"
     id="circle850"
     style="fill:#d45500;stroke-width:2.54086" />
  <path
     id="circle846"
     style="fill:#3b4252;fill-opacity:1;stroke-width:0.24322"
     d="m 18.713497,12.4874 c -0.03138,0.06101 -0.0983,0.09483 -0.08931,0.199991 -0.02703,0.05564 -0.09462,0.05244 -0.08931,0.126836 0.0087,0.114729 0.177647,0.02728 0.223744,0.119235 0.02465,0.04932 -0.004,0.08587 -0.02233,0.156287 0.058,0.06898 0.05674,0.179383 -0.0456,0.179565 -0.06222,0 -0.07918,-0.06695 -0.142035,-0.08218 -0.03491,-0.0092 -0.08214,-0.0066 -0.126836,-0.01473 -0.03818,-0.007 -0.08359,-0.01773 -0.119709,-0.02233 -0.09237,-0.01111 -0.191513,0.01557 -0.246071,-0.03753 0.08895,-0.117943 0.206695,-0.234299 0.321127,-0.335853 0.03399,-0.03029 0.10667,-0.05024 0.08978,-0.111159 -0.06369,-0.05581 -0.141869,0.0034 -0.201891,0.03753 -0.06312,0.03541 -0.137816,0.0854 -0.209018,0.09596 -0.123713,0.01813 -0.288017,-0.036 -0.389057,0.02993 -0.01399,0.05622 0.114513,0.0347 0.09691,0.11971 -0.04947,0.0079 -0.09633,0.01163 -0.134436,-0.0228 -0.03596,-0.03129 -0.01576,-0.07779 -0.038,-0.09691 -0.03835,-0.03392 -0.182622,-0.03977 -0.24702,-0.02898 -0.07856,0.01281 -0.147961,0.05928 -0.157238,0.12636 0.09442,0.04407 0.25069,-0.04566 0.285024,0.06698 -0.05173,0.09291 -0.173533,0.144328 -0.157238,0.268872 0.0064,0.048 0.06385,0.11249 0.104983,0.119235 0.04142,0.0072 0.06434,-0.03453 0.104509,-0.02993 0.04251,0.004 0.03296,0.05374 0.08266,0.0456 0.07195,-0.03068 0.111726,-0.131912 0.194291,-0.127311 0.09895,0.11978 -0.08929,0.177859 -0.194291,0.216143 -0.119745,0.04333 -0.276446,0.06717 -0.36768,0.105459 -0.04778,0.02001 -0.228931,0.193316 -0.254146,0.05843 -0.01828,-0.09721 0.08987,-0.06864 0.112584,-0.148688 -0.1158,-0.02239 -0.224292,0.05063 -0.329677,0.09026 -0.150352,0.05672 -0.404559,0.09237 -0.440836,0.260796 -0.0079,0.03369 0.01456,0.09674 -0.0076,0.119235 -0.01794,0.01777 -0.125426,0.02126 -0.172439,0.03753 -0.07213,0.02466 -0.135287,0.07662 -0.179565,0.08836 -0.03368,0.0092 -0.08266,0.0065 -0.104033,0.0152 -0.05953,0.02298 -0.08196,0.103458 -0.150113,0.156762 -0.02797,0.02196 -0.08963,0.03776 -0.112109,0.05986 -0.03875,0.03842 -0.04469,0.13508 -0.113059,0.149162 -0.04345,0.0034 -0.07831,-0.03263 -0.119235,-0.0076 -0.0036,0.09515 0.0333,0.224377 -0.0076,0.320651 -0.08861,0.07194 -0.185945,0.122727 -0.299275,0.186215 -0.0627,0.03514 -0.119021,0.04386 -0.194766,0.08171 -0.05362,0.02674 -0.102562,0.09077 -0.164363,0.12731 -0.142768,0.08382 -0.315668,0.183401 -0.314476,0.395708 3.65e-4,0.04597 0.02366,0.09497 0.02945,0.148687 0.0046,0.03164 -0.0012,0.06247 0,0.09691 0.0088,0.07799 0.06556,0.177936 0,0.231819 -0.100647,-0.04123 -0.228814,-0.05575 -0.299274,-0.12731 -0.01935,-0.07368 0.03972,-0.134339 0.0304,-0.201417 -0.0072,-0.0539 -0.08358,-0.149821 -0.127785,-0.156763 -0.04549,-0.0069 -0.08694,0.04165 -0.133961,0.03705 -0.0559,-0.0043 -0.107828,-0.08074 -0.179565,-0.08883 -0.105234,-0.01175 -0.182242,0.02434 -0.298799,0.0081 -0.112787,0.06007 -0.146293,0.167316 -0.284549,0.156763 -0.03355,-0.0025 -0.06662,-0.01907 -0.101658,-0.0342 a 5.550519,5.5541383 0 0 0 -0.453187,1.495422 c 0.04742,-0.0053 0.09608,-0.0099 0.135386,-0.02233 0.161703,-0.05162 0.130303,-0.269992 0.292149,-0.343454 0.07065,-0.0319 0.1522,-0.03731 0.276473,-0.04418 l 4.86e-4,-9.49e-4 c 0.03953,0.03313 0.0584,0.09131 0.0532,0.141562 -0.0042,0.03806 -0.03999,0.07305 -0.05985,0.12731 -0.01657,0.04765 -0.02107,0.103238 -0.03753,0.141562 -0.02232,0.05033 -0.07218,0.08692 -0.08978,0.134436 -0.01023,0.03077 -0.0044,0.06858 -0.01425,0.09643 -0.01709,0.04917 -0.08365,0.08388 -0.0532,0.134436 0.160165,0.06422 0.354298,-0.01751 0.494041,0.0081 0.05897,0.01076 0.180756,0.0804 0.179565,0.171014 -8.76e-4,0.06786 -0.05169,0.112851 -0.05985,0.187166 -0.0088,0.09346 -0.05106,0.208077 -0.05226,0.283598 -0.0066,0.12379 0.18151,0.34093 0.313526,0.336327 0.142229,-0.0019 0.225352,-0.141476 0.396657,-0.06745 0.05686,0.02452 0.116884,0.116236 0.179565,0.111634 0.05177,-0.0038 0.130307,-0.09471 0.164839,-0.157238 0.04212,-0.07632 0.04489,-0.140766 0.119234,-0.179089 0.08029,-0.0413 0.144743,-0.02157 0.247496,-0.05985 0.04591,-0.01695 0.08481,-0.04515 0.12636,-0.07363 0.03624,-0.02482 0.07441,-0.09079 0.11971,-0.0456 0.05971,0.0596 -0.07272,0.09305 -0.02233,0.156764 0.103684,0.05478 0.157112,-0.09991 0.232294,-0.104509 0.02399,-7.69e-4 0.10735,0.04713 0.150113,0.07506 0.05832,0.03826 0.07772,0.09134 0.141561,0.104033 0.041,0.0074 0.106761,-0.01621 0.164364,-0.0081 0.07629,0.01081 0.121787,0.07966 0.179564,0.07506 0.07044,-0.0019 0.103911,-0.07816 0.164364,-0.08931 0.132035,-0.02413 0.181258,0.01509 0.23942,0.09738 0.06522,0.0113 0.06675,-0.07619 0.12636,-0.0456 -0.03288,0.06501 0.01132,0.09539 0.03753,0.149638 0.01717,0.035 0.01454,0.0603 0.0304,0.07506 0.03566,0.03375 0.104992,0.03298 0.157238,0.0665 0.05516,0.03465 0.08583,0.09948 0.149162,0.171964 0.06511,0.07424 0.174216,0.150616 0.261272,0.155812 0.08217,0.0053 0.149562,-0.02393 0.217568,-0.0152 0.154685,0.01903 0.25089,0.09695 0.359129,0.18004 0.06042,0.04638 0.115207,0.07883 0.134911,0.134436 0.01372,0.03881 0.0066,0.09092 0.02233,0.134436 0.03303,0.09285 0.16882,0.137634 0.11971,0.298325 0.02247,0.04705 0.07294,0.06283 0.12731,0.09596 0.04338,0.02634 0.08029,0.08165 0.12731,0.08978 0.03054,0.0043 0.06362,-0.0093 0.08978,-0.0081 0.08498,0.0059 0.143437,0.03901 0.217093,0.06698 0.04571,0.01782 0.104502,0.02474 0.134436,0.0456 0.038,0.0256 0.04264,0.111268 0.08931,0.133961 0.03063,0.01504 0.09862,-0.0052 0.149637,0 0.08025,0.009 0.189716,0.05525 0.262222,0.05985 0.04403,7.15e-4 0.08022,-0.0198 0.119234,-0.0152 0.183212,0.01398 0.286846,0.232563 0.463638,0.298325 0.05478,0.02111 0.141742,0.006 0.179565,0.02233 0.06617,0.02862 0.122711,0.231422 0.127311,0.321126 0.01513,0.27109 -0.193946,0.35747 -0.314476,0.536794 -0.02513,0.0375 -0.03854,0.09733 -0.07458,0.149637 -0.07178,0.105323 -0.151354,0.126662 -0.141562,0.320177 0.0022,0.05331 0.02945,0.105271 0.02945,0.164363 0,0.07197 -0.007,0.166729 -0.02328,0.231344 -0.01253,0.04952 -0.05315,0.08843 -0.05985,0.133486 -0.006,0.04555 0.01359,0.08214 0.0081,0.12066 -0.0064,0.04294 -0.04896,0.103135 -0.08171,0.163413 -0.0691,0.127365 -0.08406,0.277569 -0.224219,0.328727 -0.08233,0.03016 -0.194467,0.01288 -0.284548,0.04418 -0.03644,0.01264 -0.08259,0.04623 -0.127311,0.06698 -0.130175,0.06045 -0.315778,0.142514 -0.35154,0.276476 -0.02135,0.07924 0.0043,0.148528 0.01805,0.225644 a 5.550519,5.5541383 0 0 0 4.873899,-4.516198 c -0.05723,0.02828 -0.113572,0.05484 -0.164363,0.05795 -0.071,0.0033 -0.14166,-0.03791 -0.209968,-0.04465 -0.08916,-0.0093 -0.203768,-9.44e-4 -0.292149,0.01473 -0.08593,0.01524 -0.16367,0.07746 -0.239419,0.08266 -0.145036,0.01092 -0.28234,-0.13083 -0.373381,-0.201891 -0.05572,-0.04328 -0.112695,-0.07849 -0.164838,-0.119235 -0.05588,-0.0437 -0.128341,-0.07009 -0.171964,-0.112109 -0.05912,-0.05694 -0.05918,-0.154866 -0.08978,-0.230394 -0.03647,-0.08895 -0.147209,-0.154526 -0.231819,-0.238945 -0.06328,-0.06306 -0.208438,-0.157299 -0.224218,-0.238469 -0.0082,-0.04146 0.01497,-0.08976 0.01378,-0.134911 -0.0039,-0.06541 -0.05258,-0.102555 -0.05178,-0.149163 0.0016,-0.06555 0.07875,-0.115575 0.09738,-0.171014 0.0097,-0.02825 0.0052,-0.06928 0.0152,-0.105458 0.02097,-0.07573 0.07008,-0.119624 0.05891,-0.230394 -0.0045,-0.04406 -0.04346,-0.08431 -0.04465,-0.141562 -0.0015,-0.0392 0.02352,-0.0614 0.02233,-0.09738 -0.0057,-0.06365 -0.08862,-0.07662 -0.09738,-0.149637 -0.0087,-0.07555 0.0723,-0.137381 0.11971,-0.223268 0.02093,-0.03845 0.03409,-0.09803 0.0532,-0.127311 0.04195,-0.06348 0.109487,-0.0941 0.141561,-0.156762 0.02382,-0.04612 0.03136,-0.114252 0.05273,-0.148687 0.02757,-0.04449 0.08247,-0.06908 0.134911,-0.127311 0.04254,-0.04764 0.05949,-0.105293 0.08931,-0.126835 0.03757,-0.02695 0.09355,-0.03381 0.134436,-0.05225 0.138454,-0.0629 0.240019,-0.143753 0.306875,-0.275997 -0.02042,-0.120017 0.01031,-0.170364 0.05985,-0.253196 0.04571,-0.07667 0.07927,-0.150199 0.157238,-0.194291 0.04938,-0.02786 0.0967,-0.04309 0.140612,-0.06508 a 5.550519,5.5541383 0 0 0 -4.028806,-2.548109 z m -3.666825,0.866946 4.86e-4,4.86e-4 c -0.01218,-9.72e-4 -0.0246,-1.64e-4 -0.03658,0.0014 a 5.550519,5.5541383 0 0 0 -0.102133,0.07648 c 0.009,0.02407 0.03013,0.03653 0.0266,0.07126 -0.07284,0.0518 -0.03407,0.226066 0.03753,0.231819 0.07594,0.0066 0.115023,-0.191997 0.216618,-0.209018 0.03686,-0.0067 0.05609,0.02064 0.104983,0.01473 0.05903,-0.04617 0.03262,-0.140457 -0.02993,-0.156763 -0.02458,-0.0068 -0.05764,0.01639 -0.09738,0.0152 -0.04216,-0.0032 -0.08435,-0.041 -0.119235,-0.0456 z m 0.548669,0.291674 c -0.03792,-0.0013 -0.08043,0.0055 -0.114959,0.0067 -0.04896,0.0048 -0.10751,0.01512 -0.112109,0.05225 0.07782,0.03566 0.290568,0.06195 0.314951,-0.03658 -0.01559,-0.01535 -0.04994,-0.02153 -0.08788,-0.02233 z m -1.175246,0.152962 a 5.550519,5.5541383 0 0 0 -0.132536,0.131586 c 0.05333,-0.02177 0.123579,-0.09612 0.131586,-0.12826 2.92e-4,-0.0012 6.57e-4,-0.0022 9.49e-4,-0.0033 z m 0.691182,0.0285 c -0.07657,0.0025 -0.148406,0.04075 -0.213768,0.04988 -0.05189,0.0069 -0.146685,-0.01157 -0.134911,0.06603 0.0096,0.06335 0.107997,0.04149 0.164839,0.02375 0.118222,-0.03732 0.192437,-0.06988 0.261271,-0.12731 -0.02657,-0.0073 -0.05222,-0.01268 -0.07743,-0.01188 z m -2.590862,3.884868 a 5.550519,5.5541383 0 0 0 -0.02043,0.287399 5.550519,5.5541383 0 0 0 3.132407,4.991233 c -3.65e-4,-0.0041 -0.0017,-0.0082 -0.0019,-0.01235 -0.0073,-0.14183 0.01563,-0.242418 -0.0076,-0.373381 -0.01733,-0.09909 -0.03933,-0.250737 -0.07506,-0.313051 -0.04003,-0.06934 -0.197199,-0.187723 -0.276473,-0.231819 -0.05233,-0.02902 -0.115423,-0.03893 -0.172439,-0.0665 -0.121834,-0.05974 -0.357948,-0.185583 -0.411384,-0.305925 -0.01523,-0.0347 -0.01296,-0.08071 -0.02945,-0.119235 -0.03251,-0.07652 -0.100852,-0.142902 -0.149642,-0.216618 -0.09235,-0.140734 -0.166899,-0.31791 -0.261746,-0.463163 -0.04796,-0.07385 -0.09001,-0.156869 -0.142512,-0.215668 -0.0308,-0.03465 -0.129191,-0.0676 -0.141561,-0.119709 -0.01689,-0.06895 -0.06802,-0.163148 -0.05985,-0.216143 0.01073,-0.07122 0.149372,-0.129327 0.149162,-0.194291 -1.98e-4,-0.0552 -0.07361,-0.08659 -0.08931,-0.133486 -0.03778,-0.113971 0.02207,-0.181524 0.06698,-0.276472 0.01509,-0.03125 0.03022,-0.08091 0.0456,-0.104034 0.0274,-0.04105 0.08213,-0.05239 0.11876,-0.09691 0.02034,-0.02483 0.03309,-0.07672 0.05985,-0.112109 0.0569,-0.07537 0.149007,-0.103981 0.172439,-0.171964 0.01982,-0.05541 0.03127,-0.332924 0.0081,-0.425635 -0.01304,-0.05367 -0.06252,-0.09827 -0.08171,-0.149162 -0.0338,-0.09002 -0.04244,-0.190342 -0.135386,-0.185741 -0.05742,0.0011 -0.09761,0.0644 -0.134436,0.104034 -0.009,0.05315 -0.0046,0.11057 -0.06033,0.126835 -0.08499,0.02501 -0.11747,-0.08988 -0.216618,-0.119709 -0.03948,-0.0121 -0.101898,-0.01027 -0.126835,-0.02138 -0.07235,-0.03241 -0.0956,-0.1385 -0.171964,-0.179565 -0.06382,-0.03422 -0.118622,-0.02263 -0.157239,-0.07506 -0.01717,-0.03592 -0.003,-0.100952 -0.0076,-0.149162 -0.082,-0.04784 -0.152161,-0.226186 -0.247495,-0.268397 -0.06329,-0.02817 -0.160285,-0.02508 -0.23942,-0.05178 -0.03727,-0.01262 -0.06641,-0.0288 -0.104983,-0.03753 -0.04796,-0.01043 -0.09673,-0.01187 -0.133962,-0.0304 -0.0349,-0.01727 -0.0663,-0.04319 -0.09596,-0.07316 z m 2.753325,0.6052 v 9.51e-4 c -0.0072,-3.19e-4 -0.01594,-3.26e-4 -0.02518,0.0043 -0.05439,0.02504 -0.02601,0.121352 0.02993,0.112584 0.05193,-0.0084 0.04596,-0.113208 -0.0048,-0.11781 z" />
</svg>
