<?xml version="1.0" encoding="UTF-8" standalone="no"?>
<svg
   height="48"
   width="48"
   version="1.1"
   id="svg43"
   sodipodi:docname="audacious.svg"
   inkscape:version="1.1.2 (0a00cf5339, 2022-02-04)"
   xmlns:inkscape="http://www.inkscape.org/namespaces/inkscape"
   xmlns:sodipodi="http://sodipodi.sourceforge.net/DTD/sodipodi-0.dtd"
   xmlns:xlink="http://www.w3.org/1999/xlink"
   xmlns="http://www.w3.org/2000/svg"
   xmlns:svg="http://www.w3.org/2000/svg">
  <defs
     id="defs47" />
  <sodipodi:namedview
     id="namedview45"
     pagecolor="#ffffff"
     bordercolor="#666666"
     borderopacity="1.0"
     inkscape:pageshadow="2"
     inkscape:pageopacity="0.0"
     inkscape:pagecheckerboard="0"
     showgrid="false"
     inkscape:snap-page="true"
     inkscape:zoom="15.145833"
     inkscape:cx="24"
     inkscape:cy="23.933975"
     inkscape:window-width="1920"
     inkscape:window-height="1026"
     inkscape:window-x="0"
     inkscape:window-y="28"
     inkscape:window-maximized="1"
     inkscape:current-layer="svg43" />
  <linearGradient
     id="a"
     gradientUnits="userSpaceOnUse"
     x1="404.889375"
     x2="404.889375"
     y1="546.476453"
     y2="517.476513">
    <stop
       offset="0"
       stop-color="#00cafe"
       id="stop2" />
    <stop
       offset="1"
       stop-color="#1460f3"
       id="stop4" />
  </linearGradient>
  <linearGradient
     id="b"
     gradientUnits="userSpaceOnUse"
     x1="400.571445"
     x2="400.571445"
     y1="545.797993"
     y2="517.797993">
    <stop
       offset="0"
       stop-color="#e3e3e3"
       id="stop7" />
    <stop
       offset="1"
       stop-color="#fcf9f9"
       id="stop9" />
  </linearGradient>
  <linearGradient
     id="c"
     gradientUnits="userSpaceOnUse"
     x1="400.571445"
     x2="400.571445"
     y1="545.797993"
     y2="517.797993">
    <stop
       offset="0"
       stop-color="#333"
       id="stop12" />
    <stop
       offset="1"
       stop-color="#4d4d4d"
       id="stop14" />
  </linearGradient>
  <linearGradient
     id="d"
     gradientUnits="userSpaceOnUse"
     x1="400.571445"
     x2="400.571445"
     y1="545.797993"
     y2="517.797993">
    <stop
       offset="0"
       stop-color="#d3d3d3"
       id="stop17" />
    <stop
       offset="1"
       stop-color="#fcf9f9"
       id="stop19" />
  </linearGradient>
  <linearGradient
     id="e">
    <stop
       offset="0"
       stop-color="#dcdfe0"
       id="stop22" />
    <stop
       offset="1"
       stop-color="#fefeff"
       id="stop24" />
  </linearGradient>
  <linearGradient
     id="f"
     gradientUnits="userSpaceOnUse"
     x1="395.833563389816"
     x2="402.217507463838"
     xlink:href="#e"
     y1="539.15059950142"
     y2="526.19189961534" />
  <linearGradient
     id="g"
     gradientUnits="userSpaceOnUse"
     x1="404.942300554954"
     x2="404.942300554954"
     xlink:href="#e"
     y1="546.476130480766"
     y2="517.394395419478" />
  <rect
     style="fill:none"
     id="rect943"
     width="48"
     height="48"
     x="0"
     y="0" />
  <g
     id="g871"
     transform="matrix(0.60869565,0,0,0.60869565,9.3912947,9.3912986)">
    <g
       transform="matrix(1.5700286,0,0,1.5699241,-605.24874,-811.09843)"
       id="g41">
      <circle
         cx="400.74646"
         cy="531.97644"
         fill="url(#c)"
         r="13.999958"
         id="circle29"
         style="fill:url(#c)" />
      <circle
         cx="400.74652"
         cy="531.9765"
         fill="url(#b)"
         r="0"
         stroke="url(#a)"
         id="circle31"
         style="fill:url(#b);stroke:url(#a)" />
      <circle
         cx="400.74646"
         cy="531.97644"
         fill="url(#d)"
         r="0"
         id="circle33"
         style="fill:url(#d)" />
      <path
         d="m 31.275391,11.880859 -10.648438,2.882813 h -0.002 c -0.80003,0.224519 -1.443359,1.117063 -1.443359,1.984375 v 13.75 C 18.370342,30.053284 17.328167,29.874038 16.248,30.167969 c -1.949117,0.530246 -3.169767,2.244775 -2.751953,3.828125 0.11615,0.440192 0.347294,0.825826 0.664062,1.142578 L 25.869141,46.847656 A 22.935151,22.935151 0 0 0 46.705078,27.052734 L 31.818359,12.166016 c -0.148423,-0.148424 -0.335323,-0.248509 -0.542968,-0.285157 z"
         fill-opacity="0.078431"
         transform="matrix(0.61041491,0,0,0.61041491,386.09651,517.3265)"
         id="path35" />
      <path
         d="m 398.68645,526.33873 c -0.48835,0.13705 -0.88147,0.68203 -0.88147,1.21145 v 8.39331 c -0.4952,-0.27149 -1.13117,-0.38128 -1.79052,-0.20186 -1.18977,0.32367 -1.93536,1.36979 -1.68032,2.33629 0.25505,0.96644 1.4271,1.50626 2.61691,1.18251 0.94919,-0.25822 1.60351,-0.98891 1.70784,-1.7594 l 0.0278,-7.93185 6.17035,-1.7306 v 6.25898 c -0.4952,-0.27152 -1.13116,-0.38129 -1.79053,-0.20193 -1.18976,0.32369 -1.93533,1.36986 -1.6803,2.3363 0.25506,0.96649 1.42711,1.50623 2.61689,1.18255 0.9492,-0.25821 1.60352,-0.98888 1.70786,-1.75938 l 0.0279,-10.32588 c 0,-0.39701 -0.23434,-0.69403 -0.55091,-0.7499 l -6.50091,1.75941 z"
         fill="url(#f)"
         id="path37"
         style="fill:url(#f)" />
      <path
         d="m 400.78711,517.28516 c -8.08372,0 -14.64844,6.56667 -14.64844,14.65039 0,8.08371 6.56472,14.65039 14.64844,14.65039 8.08372,0 14.65039,-6.56668 14.65039,-14.65039 0,-8.08372 -6.56667,-14.65039 -14.65039,-14.65039 z m 0,1.2207 c 7.42386,0 13.42969,6.00583 13.42969,13.42969 0,7.42385 -6.00583,13.42773 -13.42969,13.42773 -7.42386,0 -13.42773,-6.00388 -13.42773,-13.42773 0,-7.42386 6.00387,-13.42969 13.42773,-13.42969 z"
         fill="url(#g)"
         id="path39"
         style="fill:url(#g)" />
    </g>
  </g>
</svg>
