<?xml version="1.0" encoding="UTF-8" standalone="no"?>
<svg
   height="48"
   width="48"
   version="1.1"
   id="svg24"
   sodipodi:docname="audacity.svg"
   inkscape:version="1.1.2 (0a00cf5339, 2022-02-04)"
   xmlns:inkscape="http://www.inkscape.org/namespaces/inkscape"
   xmlns:sodipodi="http://sodipodi.sourceforge.net/DTD/sodipodi-0.dtd"
   xmlns:xlink="http://www.w3.org/1999/xlink"
   xmlns="http://www.w3.org/2000/svg"
   xmlns:svg="http://www.w3.org/2000/svg">
  <defs
     id="defs28" />
  <sodipodi:namedview
     id="namedview26"
     pagecolor="#ffffff"
     bordercolor="#666666"
     borderopacity="1.0"
     inkscape:pageshadow="2"
     inkscape:pageopacity="0.0"
     inkscape:pagecheckerboard="0"
     showgrid="false"
     inkscape:snap-page="true"
     inkscape:zoom="15.145833"
     inkscape:cx="24"
     inkscape:cy="23.933975"
     inkscape:window-width="1920"
     inkscape:window-height="1026"
     inkscape:window-x="0"
     inkscape:window-y="28"
     inkscape:window-maximized="1"
     inkscape:current-layer="svg24" />
  <linearGradient
     id="a">
    <stop
       offset="0"
       stop-color="#00cafe"
       id="stop2" />
    <stop
       offset="1"
       stop-color="#1460f3"
       id="stop4" />
  </linearGradient>
  <linearGradient
     id="b"
     gradientTransform="matrix(1.538492,0.2161125,-0.2161125,1.538492,361.65488,-58.161593)"
     gradientUnits="userSpaceOnUse"
     x1="29.444031"
     x2="29.444031"
     xlink:href="#a"
     y1="201.7325"
     y2="18.617405" />
  <linearGradient
     id="c"
     gradientUnits="userSpaceOnUse"
     x1="384.794754962357"
     x2="383.945510031923"
     xlink:href="#a"
     y1="295.234340238601"
     y2="-31.718983183976" />
  <linearGradient
     id="d"
     gradientTransform="matrix(1.6137412,0,0,1.6439989,438.86899,-124.99883)"
     gradientUnits="userSpaceOnUse"
     x1="-30.874136"
     x2="-32.125168"
     y1="251.80434"
     y2="55.392136">
    <stop
       offset="0"
       stop-color="#d5dbff"
       id="stop9" />
    <stop
       offset="1"
       stop-color="#f9ffff"
       id="stop11" />
  </linearGradient>
  <rect
     style="fill:none"
     id="rect874"
     width="48"
     height="48"
     x="0"
     y="0" />
  <g
     id="g850"
     transform="matrix(0.60869563,0,0,0.60869563,9.391305,9.3913056)">
    <g
       transform="matrix(0.13396277,0,0,0.13396277,-27.712021,6.2287343)"
       id="g22">
      <circle
         cx="386.01785"
         cy="132.65823"
         fill="url(#d)"
         r="164.53577"
         id="circle14"
         style="fill:url(#d)" />
      <path
         d="m 28.378906,7.84375 c -1.18558,0.1495371 -3.954449,0.4830389 -3.458984,2.0605469 l -0.21875,-0.21875 -3.091797,22.0195311 c -1.018054,-0.926099 -3.912847,-1.683313 -4.367187,-0.966797 l -0.21875,-0.21875 c -2.721564,0.265511 -5.558422,2.573709 -5.234376,5.515625 0.129324,1.026558 0.656676,1.828239 1.310547,2.552735 -0.02401,-0.02649 -0.05274,-0.04479 -0.07617,-0.07227 l 0.09961,0.09961 c 0.232766,0.255949 0.486811,0.497675 0.740234,0.740235 l 7.47461,7.474609 A 23.000001,23.000001 0 0 0 24,47 23.000001,23.000001 0 0 0 47,24 23.000001,23.000001 0 0 0 46.726562,20.583984 l -8.925781,-8.925781 c -0.199212,-0.187694 -0.53179,-0.53102 -0.8125,-0.8125 l -0.496093,-0.496094 c -1.112309,-0.7848775 -0.450169,-0.134264 0.08594,0.390625 L 35.755859,9.9199219 Z"
         fill-opacity="0.078431"
         transform="matrix(7.1537288,0,0,7.1537288,214.32836,-39.031252)"
         id="path16" />
      <path
         d="m 475.62723,43.643619 c 0,0 1.61531,-5.38132 0.48073,-7.68318 -1.0649,-2.15964 -5.99432,-4.03163 -5.99432,-4.03163 l -52.77184,-14.845915 -8e-5,-7.2e-5 h -7e-5 c -9.45258,1.292822 -24.90563,3.239853 -26.30097,13.172737 L 368.91406,187.77386 c -8.50314,-6.39185 -20.05405,-10.1143 -32.80207,-8.47294 -23.0041,2.96371 -39.64246,20.64637 -37.44219,39.45224 2.20092,18.8015 22.59828,31.99877 45.60202,29.0372 18.35275,-2.36581 32.46026,-14.36583 36.43437,-28.55368 l 21.42249,-148.782391 59.71904,-8.17092"
         fill="url(#b)"
         id="path18"
         style="fill:url(#b)" />
      <circle
         cx="386.01785"
         cy="132.65823"
         fill="none"
         r="164.82191"
         stroke="url(#c)"
         stroke-width="13.7352"
         id="circle20"
         style="stroke:url(#c)" />
    </g>
  </g>
</svg>
