<?xml version="1.0" encoding="UTF-8" standalone="no"?>
<svg
   height="48"
   width="48"
   version="1.1"
   id="svg25"
   sodipodi:docname="blender.svg"
   inkscape:version="1.1.2 (0a00cf5339, 2022-02-04)"
   xmlns:inkscape="http://www.inkscape.org/namespaces/inkscape"
   xmlns:sodipodi="http://sodipodi.sourceforge.net/DTD/sodipodi-0.dtd"
   xmlns="http://www.w3.org/2000/svg"
   xmlns:svg="http://www.w3.org/2000/svg">
  <defs
     id="defs29" />
  <sodipodi:namedview
     id="namedview27"
     pagecolor="#ffffff"
     bordercolor="#666666"
     borderopacity="1.0"
     inkscape:pageshadow="2"
     inkscape:pageopacity="0.0"
     inkscape:pagecheckerboard="0"
     showgrid="false"
     inkscape:snap-page="true"
     inkscape:zoom="15.145833"
     inkscape:cx="24"
     inkscape:cy="23.933975"
     inkscape:window-width="1920"
     inkscape:window-height="1026"
     inkscape:window-x="0"
     inkscape:window-y="28"
     inkscape:window-maximized="1"
     inkscape:current-layer="svg25" />
  <linearGradient
     id="a"
     gradientUnits="userSpaceOnUse"
     x1="406.501118"
     x2="407.44639"
     y1="543.694484"
     y2="503.77261">
    <stop
       offset="0"
       stop-color="#f15f19"
       id="stop2" />
    <stop
       offset="1"
       stop-color="#fbb521"
       id="stop4" />
  </linearGradient>
  <linearGradient
     id="b"
     gradientUnits="userSpaceOnUse"
     x1="-413.59451"
     x2="-413.60806"
     y1="-531.74385"
     y2="-523.62898">
    <stop
       offset="0"
       stop-color="#197cf1"
       id="stop7" />
    <stop
       offset="1"
       stop-color="#21c9fb"
       id="stop9" />
  </linearGradient>
  <linearGradient
     id="c"
     gradientUnits="userSpaceOnUse"
     x1="413.49097"
     x2="413.70349"
     y1="537.25555"
     y2="517.87592">
    <stop
       offset="0"
       stop-color="#e8ebec"
       id="stop12" />
    <stop
       offset="1"
       stop-color="#fdfeff"
       id="stop14" />
  </linearGradient>
  <rect
     style="fill:none"
     id="rect874"
     width="48"
     height="48"
     x="0"
     y="0" />
  <g
     id="g850"
     transform="matrix(0.62756172,0,0,0.62756172,8.91467,8.9438918)">
    <g
       transform="matrix(1.1146822,0,0,1.1146822,-430.79758,-559.86195)"
       id="g23">
      <path
         d="m 407.44643,503.77261 a 3.0003,3.0003 0 0 0 -1.70508,5.40234 l 3.41016,2.62305 h -16.58008 a 3.0003,3.0003 0 1 0 0,6 h 7.51953 l -12.2832,8.92383 a 3.0003,3.0003 0 1 0 3.52539,4.85351 l 6.27734,-4.56054 a 15.999973,15.999973 0 0 0 -0.0391,0.7832 15.999973,15.999973 0 0 0 16,16 15.999973,15.999973 0 0 0 16,-16 15.999973,15.999973 0 0 0 -6.95508,-13.19727 3.0003,3.0003 0 0 0 -0.21679,-0.18164 l -13,-10 a 3.0003,3.0003 0 0 0 -1.95313,-0.64648 z"
         fill="url(#a)"
         id="path17"
         style="fill:url(#a)" />
      <circle
         cx="413.57144"
         cy="527.79797"
         fill="url(#c)"
         r="9.9999886"
         id="circle19"
         style="fill:url(#c)" />
      <circle
         cx="-413.57144"
         cy="-527.79797"
         fill="url(#b)"
         r="3.9999881"
         transform="scale(-1)"
         id="circle21"
         style="fill:url(#b)" />
    </g>
  </g>
</svg>
