<?xml version="1.0" encoding="UTF-8" standalone="no"?>
<svg
   height="48"
   width="48"
   version="1.1"
   id="svg34"
   sodipodi:docname="gimp.svg"
   inkscape:version="1.1.2 (0a00cf5339, 2022-02-04)"
   xmlns:inkscape="http://www.inkscape.org/namespaces/inkscape"
   xmlns:sodipodi="http://sodipodi.sourceforge.net/DTD/sodipodi-0.dtd"
   xmlns:xlink="http://www.w3.org/1999/xlink"
   xmlns="http://www.w3.org/2000/svg"
   xmlns:svg="http://www.w3.org/2000/svg">
  <defs
     id="defs38">
    <linearGradient
       inkscape:collect="always"
       xlink:href="#a"
       id="linearGradient868"
       gradientUnits="userSpaceOnUse"
       gradientTransform="matrix(0.31785146,0,0,0.3152682,6.502858,-26.592294)"
       x1="41.749325"
       y1="226.20387"
       x2="41.357147"
       y2="102.25676" />
    <linearGradient
       inkscape:collect="always"
       xlink:href="#a"
       id="linearGradient870"
       gradientUnits="userSpaceOnUse"
       gradientTransform="matrix(0.31785146,0,0,0.3152682,6.502858,-26.592294)"
       x1="41.749325"
       y1="226.20387"
       x2="41.357147"
       y2="102.25676" />
  </defs>
  <sodipodi:namedview
     id="namedview36"
     pagecolor="#ffffff"
     bordercolor="#666666"
     borderopacity="1.0"
     inkscape:pageshadow="2"
     inkscape:pageopacity="0.0"
     inkscape:pagecheckerboard="0"
     showgrid="false"
     inkscape:snap-page="true"
     inkscape:zoom="15.145833"
     inkscape:cx="24"
     inkscape:cy="23.933975"
     inkscape:window-width="1920"
     inkscape:window-height="1026"
     inkscape:window-x="0"
     inkscape:window-y="28"
     inkscape:window-maximized="1"
     inkscape:current-layer="svg34" />
  <linearGradient
     id="a"
     gradientTransform="matrix(.31785146 0 0 .3152682 6.502858 -26.592294)"
     gradientUnits="userSpaceOnUse"
     x1="41.749325"
     x2="41.357147"
     y1="226.20387"
     y2="102.25676">
    <stop
       offset="0"
       stop-color="#ff5335"
       id="stop2" />
    <stop
       offset="1"
       stop-color="#ff8f36"
       id="stop4" />
  </linearGradient>
  <linearGradient
     id="b"
     gradientUnits="userSpaceOnUse"
     x1="1.405646"
     x2="8.575851"
     y1="32.349785"
     y2="20.109837">
    <stop
       offset="0"
       stop-color="#ff6535"
       id="stop7" />
    <stop
       offset="1"
       stop-color="#ff7936"
       id="stop9" />
  </linearGradient>
  <rect
     style="fill:none"
     id="rect920"
     width="48"
     height="48"
     x="0"
     y="0" />
  <g
     id="g866"
     transform="matrix(0.63119072,0,0,0.63119072,8.8534369,8.8962071)">
    <rect
       fill="url(#a)"
       fill-opacity="0.2"
       height="40.691837"
       ry="2.6844151"
       stroke-width="0.336588"
       transform="matrix(0.99595127,-0.08989481,0.08824411,0.99609888,0,0)"
       width="41.021355"
       x="1.254465"
       y="5.9423828"
       id="rect12"
       style="fill:url(#linearGradient868)" />
    <rect
       fill="url(#a)"
       height="40.691837"
       ry="2.6844151"
       stroke-width="0.336588"
       transform="matrix(0.99595127,-0.08989481,0.08824411,0.99609888,0,0)"
       width="41.021355"
       x="1.307434"
       y="5.3445592"
       id="rect14"
       style="fill:url(#linearGradient870)" />
    <g
       transform="matrix(0.92050941,-0.08516737,0.08686432,0.90252656,2.914963,4.013699)"
       id="g32">
      <path
         d="m 10.374369,12.467884 c 0,0 2.874509,5.927634 9.599242,5.760407 C 34.066126,17.874738 36.53732,10.523341 36.890873,9.4626804 37.244427,8.4020202 37.785407,8.5626825 37.91048,9.5429474 42.506674,51.262247 6.0135488,33.362123 4.7175144,26.256467 11.965359,24.135147 10.197592,20.069282 10.197592,20.069282 Z"
         fill="#6f2619"
         fill-rule="evenodd"
         id="path16" />
      <path
         d="m 36.96875,11.84375 c -0.561978,0.926895 -1.406492,2.033166 -2.6875,3.09375 -2.631918,2.179042 -7.050563,4.162347 -14.28125,4.34375 -4.224373,0.105049 -6.952741,-1.934149 -8.625,-3.75 L 11.25,20 c 0.136107,0.418802 0.415455,1.390498 -0.0625,2.71875 -0.514314,1.429296 -2.154514,2.891363 -4.96875,4 0.2503304,0.522033 0.4954845,1.04362 1.25,1.78125 1.0279503,1.004945 2.4570333,2.088049 4.15625,3.0625 3.398433,1.948902 7.801583,3.493212 11.90625,3.5625 4.104667,0.06929 7.857126,-1.23455 10.4375,-5 2.378744,-3.471218 3.682473,-9.347943 3,-18.28125 z"
         fill="none"
         opacity="0.185393"
         id="path18" />
      <g
         fill-rule="evenodd"
         stroke-miterlimit="10"
         id="g30">
        <path
           d="m 72.655224,21.837049 a 3.1819806,3.1819806 0 1 1 -6.363961,0 3.1819806,3.1819806 0 1 1 6.363961,0 z"
           fill="#6f2519"
           stroke="#ff7836"
           stroke-width="0.782608"
           transform="matrix(1.277778,0,0,1.277778,-75.12661,-6.507784)"
           id="path20" />
        <path
           d="m 10.429825,27.228739 a 4.331029,6.098796 0 1 1 -8.662058,0 4.331029,6.098796 0 1 1 8.662058,0 z"
           fill="#6f2619"
           stroke="url(#b)"
           transform="rotate(-35.807849,3.3628933,26.344842)"
           id="path22"
           style="stroke:url(#b)" />
        <path
           d="m 24.041631,21.837049 a 2.2980971,2.2980971 0 1 1 -4.596194,0 2.2980971,2.2980971 0 1 1 4.596194,0 z"
           fill="#ff7c36"
           stroke="#ff7b36"
           stroke-width="1.17391"
           transform="matrix(0.851852,0,0,0.851852,-3.926759,3.395528)"
           id="path24" />
        <path
           d="m 72.655224,21.837049 a 3.1819806,3.1819806 0 1 1 -6.363961,0 3.1819806,3.1819806 0 1 1 6.363961,0 z"
           fill="#6f2719"
           stroke="#ff7e36"
           stroke-width="0.666666"
           transform="matrix(1.5,0,0,1.5,-82.16821,-10.91852)"
           id="path26" />
        <path
           d="m 24.041631,21.837049 a 2.2980971,2.2980971 0 1 1 -4.596194,0 2.2980971,2.2980971 0 1 1 4.596194,0 z"
           fill="#ff7c36"
           stroke="#ff7c36"
           transform="translate(1.414216,0.707108)"
           id="path28" />
      </g>
    </g>
  </g>
</svg>
