<?xml version="1.0" encoding="UTF-8" standalone="no"?>
<svg
   height="36"
   width="36"
   version="1.1"
   id="svg21"
   sodipodi:docname="graph.svg"
   inkscape:version="1.1.2 (0a00cf5339, 2022-02-04)"
   xmlns:inkscape="http://www.inkscape.org/namespaces/inkscape"
   xmlns:sodipodi="http://sodipodi.sourceforge.net/DTD/sodipodi-0.dtd"
   xmlns="http://www.w3.org/2000/svg"
   xmlns:svg="http://www.w3.org/2000/svg">
  <defs
     id="defs25" />
  <sodipodi:namedview
     id="namedview23"
     pagecolor="#ffffff"
     bordercolor="#666666"
     borderopacity="1.0"
     inkscape:pageshadow="2"
     inkscape:pageopacity="0.0"
     inkscape:pagecheckerboard="0"
     showgrid="false"
     inkscape:zoom="15.145833"
     inkscape:cx="32.253096"
     inkscape:cy="20.038515"
     inkscape:window-width="1920"
     inkscape:window-height="1026"
     inkscape:window-x="0"
     inkscape:window-y="28"
     inkscape:window-maximized="1"
     inkscape:current-layer="svg21"
     width="36px"
     inkscape:snap-page="true" />
  <linearGradient
     gradientUnits="userSpaceOnUse"
     x1="0"
     x2="47"
     y1="23.5"
     y2="23.5"
     id="linearGradient8">
    <stop
       offset="0"
       stop-color="#a9a3d4"
       id="stop2" />
    <stop
       offset=".47001833"
       stop-color="#87baff"
       id="stop4" />
    <stop
       offset="1"
       stop-color="#89ec85"
       id="stop6" />
  </linearGradient>
  <linearGradient
     id="a"
     gradientUnits="userSpaceOnUse"
     x1="408.57138"
     x2="408.57138"
     y1="543.7981"
     y2="503.79807"
     gradientTransform="matrix(1.1,0,0,1.1,-425.42858,-552.1778)">
    <stop
       offset="0"
       stop-color="#97a9b1"
       id="stop10" />
    <stop
       offset="1"
       stop-color="#cfdce1"
       id="stop12" />
  </linearGradient>
  <rect
     style="fill:#e7e8eb;fill-opacity:1;opacity:0"
     id="rect850"
     width="36"
     height="36"
     x="0"
     y="0" />
  <circle
     cx="76.682495"
     cy="-0.55257571"
     fill="url(#a)"
     r="0"
     id="circle844"
     style="fill:#d45500;stroke-width:1.5517" />
  <circle
     cx="10.383885"
     cy="-0.46790805"
     fill="url(#a)"
     r="0"
     id="circle850"
     style="fill:#d45500;stroke-width:2.54086" />
  <path
     id="path4"
     d="m 23.680832,9.0013052 c -0.09687,0.008 -0.196691,0.05312 -0.276725,0.133085 L 21.31187,11.226137 c -0.160364,0.160331 -0.179967,0.400732 -0.04467,0.536371 l 2.970129,2.970382 c 0.06742,0.06763 0.162163,0.0965 0.258905,0.0884 0.0972,-0.0082 0.196609,-0.05298 0.277216,-0.133347 l 2.092008,-2.09225 c 0.159873,-0.160069 0.180082,-0.399979 0.04418,-0.535619 L 23.939771,9.0901942 c -0.06791,-0.06788 -0.162,-0.09692 -0.258906,-0.08889 z M 9.8097627,9.1564972 c -0.176138,-0.0031 -0.346483,0.06577 -0.471583,0.19009 -0.125509,0.1242 -0.195267,0.293683 -0.19386,0.470079 0.0049,0.6574988 0.58212,1.8439938 1.6249413,3.3400158 0.992536,1.423895 2.356116,3.06012 3.91179,4.700782 l -2.957071,2.957324 c -0.160527,0.160331 -0.180343,0.399979 -0.04451,0.535619 l 2.970391,2.97013 c 0.06758,0.06827 0.161345,0.09687 0.258643,0.08864 0.09671,-0.008 0.197002,-0.05325 0.276971,-0.133085 l 3.014327,-3.014327 c 0.263176,0.232838 0.524307,0.459063 0.781707,0.677244 0.119454,0.101177 0.269476,0.155439 0.423621,0.155439 0.03486,0 0.07004,-0.0028 0.105055,-0.0083 0.189114,-0.03073 0.355499,-0.142805 0.455007,-0.306607 0.175876,-0.289021 0.404967,-0.575728 0.681512,-0.851764 0.346614,-0.347264 0.732583,-0.618967 1.146566,-0.807319 0.186562,-0.08511 0.322756,-0.252707 0.367625,-0.452502 0.045,-0.199924 -0.0065,-0.4094 -0.137618,-0.566253 -0.246861,-0.293521 -0.505276,-0.591981 -0.771168,-0.892445 l 2.324273,-2.324025 c 0.07658,-0.07676 0.125018,-0.176935 0.132872,-0.277477 0.0082,-0.100161 -0.02389,-0.193465 -0.08869,-0.258391 l -2.970375,-2.96988 c -0.135818,-0.136031 -0.37543,-0.116133 -0.535614,0.0442 l -2.266771,2.267023 C 16.327607,13.249585 14.800979,11.963846 13.455382,10.996626 12.50796,10.315728 10.77466,9.1711482 9.8097617,9.1564912 Z M 23.437505,20.669145 c -0.763429,0 -1.492216,0.325446 -2.108061,0.941161 -0.739014,0.73901 -1.061704,1.514085 -0.933135,2.241911 0.127636,0.720497 0.700281,1.366358 1.571202,1.770577 0.749176,0.348035 1.431899,0.455918 2.033999,0.551187 0.63409,0.100031 1.232393,0.194809 1.7648,0.555958 0.110127,0.07521 0.238909,0.113498 0.368116,0.113498 0.09082,0 0.182062,-0.01893 0.267431,-0.05726 0.207393,-0.09244 0.352227,-0.286009 0.382696,-0.511261 0.228207,-1.702373 -0.09835,-3.23138 -0.919554,-4.304027 -0.633714,-0.827337 -1.51838,-1.301754 -2.427494,-1.301754 z M 10.891039,22.00505 c -0.04827,-0.0023 -0.09916,0.0051 -0.1494,0.02235 -0.134018,0.04616 -0.244391,0.157434 -0.290045,0.291789 L 9.0220347,26.55366 c -0.04533,0.133331 -0.01882,0.268526 0.06856,0.355822 0.06578,0.06647 0.159218,0.09763 0.258398,0.08915 0.03191,-0.0026 0.06464,-0.0093 0.0972,-0.02059 l 4.2342193,-1.429821 c 0.134182,-0.04551 0.246027,-0.156191 0.292042,-0.290032 0.04647,-0.133838 0.02078,-0.270767 -0.06709,-0.358836 l -2.804905,-2.804901 c -0.05498,-0.05496 -0.128946,-0.08548 -0.209422,-0.08939 z"
     style="fill:#3b4252;fill-opacity:1;stroke-width:0.128568" />
</svg>
