<?xml version="1.0" encoding="UTF-8" standalone="no"?>
<svg
   height="48"
   width="48"
   version="1.1"
   id="svg15"
   sodipodi:docname="inkscape.svg"
   inkscape:version="1.1.2 (0a00cf5339, 2022-02-04)"
   xmlns:inkscape="http://www.inkscape.org/namespaces/inkscape"
   xmlns:sodipodi="http://sodipodi.sourceforge.net/DTD/sodipodi-0.dtd"
   xmlns:xlink="http://www.w3.org/1999/xlink"
   xmlns="http://www.w3.org/2000/svg"
   xmlns:svg="http://www.w3.org/2000/svg">
  <defs
     id="defs19">
    <linearGradient
       inkscape:collect="always"
       xlink:href="#a"
       id="linearGradient842"
       gradientUnits="userSpaceOnUse"
       gradientTransform="matrix(0.31785147,0,0,0.31526821,6.502858,-26.592293)"
       x1="41.749325"
       y1="226.20387"
       x2="41.357147"
       y2="102.25676" />
    <linearGradient
       inkscape:collect="always"
       xlink:href="#a"
       id="linearGradient844"
       gradientUnits="userSpaceOnUse"
       gradientTransform="matrix(0.31785147,0,0,0.31526821,6.502858,-26.592293)"
       x1="41.749325"
       y1="226.20387"
       x2="41.357147"
       y2="102.25676" />
  </defs>
  <sodipodi:namedview
     id="namedview17"
     pagecolor="#ffffff"
     bordercolor="#666666"
     borderopacity="1.0"
     inkscape:pageshadow="2"
     inkscape:pageopacity="0.0"
     inkscape:pagecheckerboard="0"
     showgrid="false"
     inkscape:snap-page="true"
     inkscape:zoom="15.145833"
     inkscape:cx="24"
     inkscape:cy="23.933975"
     inkscape:window-width="1920"
     inkscape:window-height="1026"
     inkscape:window-x="0"
     inkscape:window-y="28"
     inkscape:window-maximized="1"
     inkscape:current-layer="svg15" />
  <linearGradient
     id="a"
     gradientTransform="matrix(.31785147 0 0 .31526821 6.502858 -26.592293)"
     gradientUnits="userSpaceOnUse"
     x1="41.749325"
     x2="41.357147"
     y1="226.20387"
     y2="102.25676">
    <stop
       offset="0"
       stop-color="#95a9bb"
       id="stop2" />
    <stop
       offset="1"
       stop-color="#cad3dc"
       id="stop4" />
  </linearGradient>
  <rect
     style="fill:none"
     id="rect868"
     width="48"
     height="48"
     x="0"
     y="0" />
  <g
     id="g840"
     transform="matrix(0.63119072,0,0,0.63119072,8.8534367,8.8962071)">
    <rect
       fill="url(#a)"
       fill-opacity="0.2"
       height="40.691837"
       ry="2.6844151"
       stroke-width="0.336588"
       transform="matrix(0.99595127,-0.08989481,0.08824412,0.99609888,0,0)"
       width="41.021355"
       x="1.254465"
       y="5.9423828"
       id="rect7"
       style="fill:url(#linearGradient842)" />
    <path
       d="M 4.7683035,6.3108114 22.351606,4.7502678 24.198524,24.755243 3.8179843,26.564 2.2092314,9.138701 C 1.9535829,6.3688346 4.6200629,6.3239227 4.7682998,6.3107715 Z"
       fill="#687681"
       fill-rule="evenodd"
       stroke-width="0.36661"
       id="path9" />
    <rect
       fill="url(#a)"
       height="40.691837"
       ry="2.6844151"
       stroke-width="0.336588"
       transform="matrix(0.99595127,-0.08989481,0.08824412,0.99609888,0,0)"
       width="41.021355"
       x="1.307434"
       y="5.3445592"
       id="rect11"
       style="fill:url(#linearGradient844)" />
    <path
       d="m 21.327318,10.3767 c -0.849454,0.142085 -1.636524,0.590845 -2.136835,1.307095 l -8.406041,12.084248 c -3.1987623,4.482248 3.074834,3.103496 5.607562,4.172734 1.174017,0.512114 -3.133162,2.143604 -2.069827,2.901954 1.03871,0.762465 5.635399,0.853575 6.669994,1.591427 1.038711,0.762466 -1.485249,2.170806 -0.446537,2.933275 1.014093,0.766585 2.938215,-0.439924 3.653368,1.565897 0.526089,1.480776 3.919813,0.128435 5.277414,-1.439679 0.844899,-1.00161 -1.839427,-0.552566 -1.105368,-1.611544 1.841325,-2.610526 4.017191,-1.710146 4.48389,-3.913637 0.25793,-1.181764 -3.666592,-1.334535 -2.776489,-2.217191 2.128872,-2.101962 10.850233,-4.446603 6.079598,-7.848924 l -12.313463,-8.9969 C 23.089183,10.399233 22.176772,10.234621 21.327318,10.3767 Z m 0.174883,0.516271 c 0.609904,-0.09886 1.256137,0.02866 1.773437,0.397585 l 4.697038,3.414513 c 0.431082,0.307439 0.559475,1.070074 0.374932,1.328666 l -2.2663,-1.291249 0.005,2.453226 -1.797777,-0.609774 -2.398979,2.146075 -1.483815,-3.420267 -0.910109,3.340112 -3.573779,0.573523 c -0.689413,0.115311 -0.710593,-0.615875 -0.115951,-1.449111 1.144078,-1.785431 3.436135,-4.875957 4.145575,-5.930816 0.36703,-0.529489 0.940904,-0.853633 1.55081,-0.952482 z m 14.415712,17.285596 c -0.847386,0.173361 -1.643012,0.743538 -1.732864,1.568254 0.08645,0.516896 4.149014,0.141725 3.770974,-0.75655 -0.291783,-0.760883 -1.190725,-0.985065 -2.03811,-0.811704 z m -2.044115,2.733893 c -0.959692,1.223232 0.550195,2.084325 1.538789,1.185193 0.262525,-0.24633 -0.217298,-1.153195 -1.538789,-1.185193 z m -14.904897,2.401714 c -1.242295,0.120013 -2.662239,1.302301 -1.439891,2.027728 1.042751,0.635279 2.260644,-0.555382 2.518574,-1.737147 -0.26997,-0.252152 -0.664585,-0.330586 -1.078683,-0.290581 z"
       fill="#444d54"
       stroke-width="1.10418"
       id="path13" />
  </g>
</svg>
