<?xml version="1.0" encoding="UTF-8" standalone="no"?>
<svg
   height="48"
   viewBox="0 0 48 48"
   width="48"
   version="1.1"
   id="svg32"
   sodipodi:docname="file-manager-blue.svg"
   inkscape:version="1.1.2 (0a00cf5339, 2022-02-04)"
   xmlns:inkscape="http://www.inkscape.org/namespaces/inkscape"
   xmlns:sodipodi="http://sodipodi.sourceforge.net/DTD/sodipodi-0.dtd"
   xmlns="http://www.w3.org/2000/svg"
   xmlns:svg="http://www.w3.org/2000/svg">
  <defs
     id="defs36" />
  <sodipodi:namedview
     id="namedview34"
     pagecolor="#ffffff"
     bordercolor="#666666"
     borderopacity="1.0"
     inkscape:pageshadow="2"
     inkscape:pageopacity="0.0"
     inkscape:pagecheckerboard="0"
     showgrid="false"
     inkscape:snap-page="true"
     inkscape:zoom="15.145833"
     inkscape:cx="26.310867"
     inkscape:cy="24"
     inkscape:window-width="1920"
     inkscape:window-height="1026"
     inkscape:window-x="0"
     inkscape:window-y="28"
     inkscape:window-maximized="1"
     inkscape:current-layer="svg32" />
  <linearGradient
     id="a"
     gradientUnits="userSpaceOnUse"
     x1="10.789665"
     x2="10.29653"
     y1="43.786892"
     y2="4.535699">
    <stop
       offset="0"
       stop-color="#197cf1"
       id="stop2" />
    <stop
       offset="1"
       stop-color="#20bcfa"
       id="stop4" />
  </linearGradient>
  <linearGradient
     id="b"
     gradientTransform="matrix(1.0160988,0,0,1.0353173,-391.00723,-518.03966)"
     gradientUnits="userSpaceOnUse"
     x1="421.13245"
     x2="421.33725"
     y1="543.39435"
     y2="509.2738">
    <stop
       offset="0"
       stop-color="#a0d5ff"
       id="stop7" />
    <stop
       offset="1"
       stop-color="#fff"
       id="stop9" />
  </linearGradient>
  <rect
     style="fill:none"
     id="rect887"
     width="48"
     height="48"
     x="0"
     y="0" />
  <g
     id="g863"
     transform="matrix(0.74528295,0,0,0.74528295,6.1132101,6.1132115)">
    <g
       transform="translate(-384.57163,-500.29819)"
       id="g30">
      <path
         d="m 401.77172,506.5146 c -0.11773,-0.003 -0.25993,0.002 -0.44479,0.002 h -13.95956 c -0.43765,0 -0.79054,0.35537 -0.79054,0.79594 v 4.85127 c -6.5e-4,0.0184 -0.005,0.0355 -0.005,0.054 v 29.33993 c 0,0.84441 0.68084,1.52526 1.52525,1.52526 h 40.9513 c 0.8444,0 1.52345,-0.68085 1.52345,-1.52526 v -29.33993 c 0,-0.8444 -0.67905,-1.52525 -1.52345,-1.52525 h -24.45265 c -0.0145,-0.0194 -0.0242,-0.0298 -0.0396,-0.0504 -0.56424,-0.76017 -1.41637,-2.8096 -1.97184,-3.55112 -0.3344,-0.48691 -0.45896,-0.56699 -0.81215,-0.57624 z"
         fill-opacity="0.666667"
         id="path12" />
      <path
         d="m 16.455078,4.1816406 c -0.127691,-0.00335 -0.281922,0.00195 -0.482422,0.00195 H 0.83203125 c -0.47468,0 -0.85742188,0.3854412 -0.85742188,0.8632812 v 5.2617192 c -7.0335e-4,0.01991 -0.0058594,0.03851 -0.0058594,0.05859 v 31.822265 c 0,0.915848 0.73844863,1.654297 1.65429693,1.654297 H 46.039062 c 0.915849,0 1.652344,-0.738449 1.652344,-1.654297 V 10.367188 c 0,-0.9158487 -0.736495,-1.6542974 -1.652344,-1.6542974 H 19.517578 c -0.01578,-0.021028 -0.0263,-0.032293 -0.04297,-0.054687 -0.61198,-0.82449 -1.536202,-3.0473125 -2.138671,-3.8515625 -0.362686,-0.5281125 -0.497787,-0.6149598 -0.88086,-0.625 z"
         fill="url(#a)"
         transform="matrix(0.92199395,0,0,0.92199395,386.60024,501.65895)"
         id="path14"
         style="fill:url(#a)" />
      <path
         d="M 23.949219,8.7128906 C 20.697711,15.243364 19.356139,21.643264 19.601562,27.730469 h 6.808594 c -1.175921,6.447052 -0.660696,10.902738 1.03711,16.113281 h 18.591796 c 0.91585,0 1.652344,-0.738449 1.652344,-1.654297 V 10.367188 c 0,-0.9158492 -0.736494,-1.6542974 -1.652344,-1.6542974 z"
         fill="url(#b)"
         fill-rule="evenodd"
         opacity="0.83"
         transform="matrix(0.92199395,0,0,0.92199395,386.60024,501.65895)"
         id="path16"
         style="fill:url(#b)" />
      <path
         d="m 401.47652,535.82753 c 0,0 -1.67916,-2.48639 1.42883,-2.56319 0,0 5.7268,0.60995 11.33622,-4.0396 2.66093,-1.60749 2.77499,2.064 2.77499,2.064 -0.17008,5.54371 -6.41218,6.9201 -6.41218,6.9201 0,0 -6.00134,2.19956 -9.12786,-2.38131 z"
         fill="#19384b"
         opacity="0.997"
         stroke-width="0.381683"
         id="path18" />
      <path
         d="m 396.85152,519.86279 c 0,-1.52704 1.24152,-2.76633 2.77228,-2.76633 1.53033,0 2.77187,1.23885 2.77187,2.76633 0,1.52838 -1.24154,2.76721 -2.77187,2.76721 -1.53076,-4.3e-4 -2.77228,-1.23883 -2.77228,-2.76721 z m 12.5703,0 c 0,-1.52704 1.24288,-2.76633 2.7732,-2.76633 1.53031,0 2.77228,1.23885 2.77228,2.76633 0,1.52838 -1.24151,2.76721 -2.77228,2.76721 -1.52988,-4.3e-4 -2.7732,-1.23883 -2.7732,-2.76721 z"
         fill="#19384b"
         stroke-width="0.79572"
         id="path20" />
      <g
         fill="#ffffff"
         fill-opacity="0.852041"
         id="g28">
        <circle
           cx="398.57166"
           cy="508.79538"
           r="1.781426"
           id="circle22" />
        <circle
           cx="394.19528"
           cy="508.83316"
           r="1.781426"
           id="circle24" />
        <circle
           cx="389.89337"
           cy="508.87534"
           r="1.781426"
           id="circle26" />
      </g>
    </g>
  </g>
</svg>
