<?xml version="1.0" encoding="UTF-8" standalone="no"?>
<svg
   height="48"
   width="48"
   version="1.1"
   id="svg31"
   sodipodi:docname="obconf.svg"
   inkscape:version="1.1.2 (0a00cf5339, 2022-02-04)"
   xmlns:inkscape="http://www.inkscape.org/namespaces/inkscape"
   xmlns:sodipodi="http://sodipodi.sourceforge.net/DTD/sodipodi-0.dtd"
   xmlns="http://www.w3.org/2000/svg"
   xmlns:svg="http://www.w3.org/2000/svg">
  <defs
     id="defs35" />
  <sodipodi:namedview
     id="namedview33"
     pagecolor="#ffffff"
     bordercolor="#666666"
     borderopacity="1.0"
     inkscape:pageshadow="2"
     inkscape:pageopacity="0.0"
     inkscape:pagecheckerboard="0"
     showgrid="false"
     inkscape:snap-page="true"
     inkscape:zoom="15.145833"
     inkscape:cx="24"
     inkscape:cy="23.933975"
     inkscape:window-width="1920"
     inkscape:window-height="1026"
     inkscape:window-x="0"
     inkscape:window-y="28"
     inkscape:window-maximized="1"
     inkscape:current-layer="svg31" />
  <linearGradient
     gradientUnits="userSpaceOnUse"
     x1="0"
     x2="47"
     y1="23.5"
     y2="23.5"
     id="linearGradient8">
    <stop
       offset="0"
       stop-color="#a9a3d4"
       id="stop2" />
    <stop
       offset=".47001833"
       stop-color="#87baff"
       id="stop4" />
    <stop
       offset="1"
       stop-color="#89ec85"
       id="stop6" />
  </linearGradient>
  <linearGradient
     id="a"
     gradientTransform="matrix(0.8333336,0,0,0.81375867,-323.12369,599.36485)"
     gradientUnits="userSpaceOnUse"
     x1="409.57144"
     x2="409.93887"
     y1="542.79797"
     y2="501.2316">
    <stop
       offset="0"
       stop-color="#566069"
       id="stop10" />
    <stop
       offset="1"
       stop-color="#6c7884"
       id="stop12" />
  </linearGradient>
  <rect
     style="fill:none"
     id="rect884"
     width="48"
     height="48"
     x="0"
     y="0" />
  <g
     id="g860"
     transform="matrix(0.81867309,0,0,0.81867309,4.3518453,4.3517429)">
    <g
       stroke-width="1.31742"
       transform="matrix(1.1999997,0,0,1.1999997,3.1768609,-1208.2083)"
       id="g29">
      <rect
         fill-opacity="0.666667"
         height="27.667795"
         ry="1.302014"
         width="36.666676"
         x="-0.980717"
         y="1013.4235"
         id="rect15" />
      <rect
         fill="url(#a)"
         height="27.667795"
         ry="1.302014"
         width="36.666676"
         x="-0.980717"
         y="1012.5899"
         id="rect17"
         style="fill:url(#a)" />
      <g
         fill="#ffffff"
         id="g27">
        <path
           d="m 25.696754,1026.3903 c -0.05665,-0.075 -0.130586,-0.1183 -0.222322,-0.1323 l -1.937235,-0.2965 c -0.105898,-0.3387 -0.250649,-0.6845 -0.43412,-1.0373 0.126948,-0.1765 0.317437,-0.4252 0.571464,-0.7464 0.254027,-0.3212 0.43399,-0.5557 0.53989,-0.704 0.05652,-0.077 0.08459,-0.1588 0.08459,-0.2435 0,-0.099 -0.02455,-0.1763 -0.07406,-0.2328 -0.254027,-0.3602 -0.836276,-0.9599 -1.746746,-1.7998 -0.08446,-0.071 -0.172817,-0.1058 -0.264423,-0.1058 -0.105898,0 -0.190617,0.032 -0.254157,0.095 l -1.503115,1.1327 c -0.2895,-0.1483 -0.607067,-0.2788 -0.952829,-0.3917 l -0.296387,-1.9478 c -0.007,-0.092 -0.04768,-0.1677 -0.121752,-0.2276 -0.0742,-0.06 -0.160472,-0.09 -0.259484,-0.09 h -2.350046 c -0.204651,0 -0.33173,0.099 -0.381106,0.2963 -0.09174,0.3528 -0.194126,1.0091 -0.307042,1.969 -0.331729,0.106 -0.652805,0.2401 -0.963355,0.4024 l -1.460884,-1.1328 c -0.09174,-0.071 -0.183472,-0.1058 -0.275208,-0.1058 -0.155275,0 -0.488693,0.2522 -1.000387,0.7569 -0.511693,0.5047 -0.859145,0.884 -1.042746,1.138 -0.06354,0.092 -0.09524,0.1729 -0.09524,0.2435 0,0.085 0.03521,0.1694 0.105769,0.254 0.472843,0.5718 0.85044,1.0586 1.132794,1.461 -0.176456,0.3246 -0.314059,0.6493 -0.412811,0.9739 l -1.9690699,0.2964 c -0.077572,0.014 -0.1446202,0.06 -0.2011429,0.1377 -0.056523,0.077 -0.084719,0.1588 -0.084719,0.2434 v 2.3502 c 0,0.092 0.028196,0.1746 0.084719,0.2486 0.056523,0.075 0.130587,0.1186 0.2223227,0.1326 l 1.9373651,0.2859 c 0.09875,0.3457 0.243373,0.695 0.43399,1.0478 -0.126948,0.1765 -0.317567,0.4252 -0.571594,0.7464 -0.254027,0.3212 -0.43412,0.5557 -0.539889,0.704 -0.05652,0.077 -0.08472,0.1588 -0.08472,0.2435 0,0.092 0.02469,0.1728 0.07406,0.2433 0.275207,0.3812 0.857456,0.9742 1.746747,1.7786 0.0777,0.077 0.16593,0.1164 0.264682,0.1164 0.105899,0 0.194126,-0.032 0.264682,-0.095 l 1.492719,-1.1329 c 0.289501,0.1483 0.607067,0.2788 0.952831,0.3919 l 0.296387,1.9478 c 0.0072,0.092 0.04769,0.1675 0.121751,0.2276 0.07406,0.06 0.160603,0.09 0.259355,0.09 h 2.350176 c 0.204911,0 0.331859,-0.099 0.381365,-0.2964 0.09161,-0.3529 0.193867,-1.0091 0.306782,-1.9689 0.33173,-0.1059 0.652934,-0.2402 0.963355,-0.4024 l 1.461015,1.1434 c 0.09875,0.063 0.190617,0.095 0.275207,0.095 0.155145,0 0.486875,-0.2503 0.994929,-0.7515 0.508315,-0.5011 0.857586,-0.8823 1.047944,-1.1435 0.06354,-0.071 0.09538,-0.1516 0.09538,-0.2433 0,-0.092 -0.03521,-0.1803 -0.105898,-0.2648 -0.508055,-0.621 -0.885652,-1.1079 -1.132794,-1.4609 0.141112,-0.2611 0.278846,-0.5822 0.412941,-0.9633 l 1.958415,-0.2962 c 0.08458,-0.014 0.155405,-0.06 0.211797,-0.1378 0.0564,-0.078 0.08446,-0.159 0.08446,-0.2436 v -2.35 c 1.3e-4,-0.092 -0.02794,-0.1745 -0.08459,-0.2487 z m -6.129271,3.3188 c -0.529234,0.5293 -1.168005,0.794 -1.916184,0.794 -0.748179,0 -1.386821,-0.2647 -1.916185,-0.794 -0.529235,-0.5293 -0.793917,-1.1679 -0.793917,-1.9161 0,-0.7481 0.264552,-1.3868 0.793917,-1.9161 0.529364,-0.5293 1.168136,-0.7939 1.916185,-0.7939 0.748179,0 1.38695,0.2646 1.916184,0.7939 0.529235,0.5293 0.793917,1.168 0.793917,1.9161 0,0.7482 -0.264682,1.3868 -0.793917,1.9161 z"
           fill-opacity="0.851852"
           stroke-width="0.171182"
           id="path19" />
        <circle
           cx="9.3240719"
           cy="1015.5069"
           fill-opacity="0.852041"
           r="1.484522"
           id="circle21" />
        <circle
           cx="5.6770792"
           cy="1015.5384"
           fill-opacity="0.852041"
           r="1.484522"
           id="circle23" />
        <circle
           cx="2.092133"
           cy="1015.5735"
           fill-opacity="0.852041"
           r="1.484522"
           id="circle25" />
      </g>
    </g>
  </g>
</svg>
