<?xml version="1.0" encoding="UTF-8" standalone="no"?>
<svg
   height="48"
   width="48"
   version="1.1"
   id="svg29"
   sodipodi:docname="OBS.svg"
   inkscape:version="1.1.2 (0a00cf5339, 2022-02-04, custom)"
   xmlns:inkscape="http://www.inkscape.org/namespaces/inkscape"
   xmlns:sodipodi="http://sodipodi.sourceforge.net/DTD/sodipodi-0.dtd"
   xmlns="http://www.w3.org/2000/svg"
   xmlns:svg="http://www.w3.org/2000/svg">
  <defs
     id="defs33" />
  <sodipodi:namedview
     id="namedview31"
     pagecolor="#ffffff"
     bordercolor="#666666"
     borderopacity="1.0"
     inkscape:pageshadow="2"
     inkscape:pageopacity="0.0"
     inkscape:pagecheckerboard="0"
     showgrid="false"
     inkscape:snap-page="true"
     inkscape:zoom="15.145833"
     inkscape:cx="15.647868"
     inkscape:cy="26.640991"
     inkscape:window-width="1920"
     inkscape:window-height="1026"
     inkscape:window-x="0"
     inkscape:window-y="28"
     inkscape:window-maximized="1"
     inkscape:current-layer="svg29" />
  <linearGradient
     id="a"
     gradientUnits="userSpaceOnUse"
     x1="399.57144"
     x2="399.57144"
     y1="545.79797"
     y2="517.79797">
    <stop
       offset="0"
       stop-color="#3889e9"
       id="stop2" />
    <stop
       offset="1"
       stop-color="#5ea5fb"
       id="stop4" />
  </linearGradient>
  <linearGradient
     id="b"
     gradientUnits="userSpaceOnUse"
     x1="400.55615"
     x2="400.55615"
     y1="546.92657"
     y2="516.4751">
    <stop
       offset="0"
       stop-color="#2e3e46"
       id="stop7" />
    <stop
       offset="1"
       stop-color="#47606a"
       id="stop9" />
  </linearGradient>
  <linearGradient
     id="c"
     gradientUnits="userSpaceOnUse"
     x1="337.80704"
     x2="337.99731"
     y1="551.86993"
     y2="547.47272">
    <stop
       offset="0"
       stop-color="#ff9300"
       id="stop12" />
    <stop
       offset="1"
       stop-color="#ffd702"
       id="stop14" />
  </linearGradient>
  <rect
     style="fill:none"
     id="rect884"
     width="48"
     height="48"
     x="0"
     y="0" />
  <g
     id="g1781"
     transform="matrix(0.02879043,0,0,0.02879043,9.7055515,9.7055515)">
    <path
       class="cls-4"
       d="m 496.5,10.22732 c 268.56207,0 486.27268,217.71061 486.27268,486.27268 0,268.56207 -217.71061,486.27268 -486.27268,486.27268 C 227.93793,982.77268 10.22732,765.06214 10.22732,496.5 10.22732,227.93786 227.93789,10.22732 496.5,10.22732"
       shape-rendering="geometricPrecision"
       id="path49"
       style="fill:#ffffff" />
    <path
       class="cls-3"
       d="m 496.5,37.755839 c 253.35842,0 458.74416,205.385741 458.74416,458.744161 0,253.35842 -205.38574,458.74416 -458.74416,458.74416 C 243.14158,955.24416 37.755839,749.8585 37.755839,496.5 37.755839,243.1415 243.14152,37.755839 496.5,37.755839"
       shape-rendering="geometricPrecision"
       id="path47"
       style="fill:#000000;fill-opacity:1;stroke-width:0.923956" />
    <path
       class="cls-9"
       d="M 666.907,350.50177 A 199.24212,199.24212 0 0 1 389.6664,420.95782 202.74787,202.74787 0 0 1 344.753,383.18446 198.9214,198.9214 0 0 1 294.85481,242.05133 c 0.28387,-5.78965 0.76859,-11.56257 1.52683,-17.30975 0.74726,-5.66395 1.7459,-11.30258 2.97756,-16.87354 q 1.89659,-8.57846 4.54716,-16.96232 2.572,-8.15982 5.86352,-16.07336 c 2.27456,-5.48511 4.8105,-10.85411 7.54648,-16.122 2.88124,-5.54761 6.07307,-10.94466 9.4812,-16.1843 q 4.7149,-7.24866 10.04419,-14.06235 c 3.85433,-4.95083 7.95005,-9.72719 12.27081,-14.27641 q 6.54174,-6.88764 13.66916,-13.16194 c 4.83847,-4.26274 9.91241,-8.2498 15.13962,-12.02191 q 4.04222,-2.917 8.23639,-5.61188 a 244.394,244.394 0 0 0 -109.08168,323.486 q 0.82056,1.704 1.66751,3.39519 0.38468,0.7681 0.77476,1.53348 a 4.60036,4.60036 0 0 0 0.46987,0.91713 c 0.32364,0.35883 0.40473,0.29867 0.89987,0.28969 2.578,-0.0468 5.15806,-0.0347 7.73585,0.021 q 7.14438,0.15426 14.26584,0.8147 a 199.577,199.577 0 0 1 178.16234,166.36656 201.32943,201.32943 0 0 1 0.64133,60.16627 A 198.7484,198.7484 0 0 1 435.532,742.237 202.19273,202.19273 0 0 1 385.75531,784.02111 199.86222,199.86222 0 0 1 261.6049,810.51543 203.06671,203.06671 0 0 1 238.40238,806.48549 c -4.95445,-1.16337 -9.85994,-2.531 -14.71085,-4.07118 a 242.60378,242.60378 0 0 0 68.54706,18.97282 247.03638,247.03638 0 0 0 66.4102,-0.79809 243.52975,243.52975 0 0 0 108.66832,-44.88732 246.04226,246.04226 0 0 0 59.73343,-63.07421 q 1.04115,-1.58711 2.05761,-3.19021 c 0.263,-0.41478 0.85074,-1.06891 0.77441,-1.50894 a 8.49447,8.49447 0 0 0 -1.05057,-1.9447 q -2.00279,-3.75737 -3.8436,-7.59815 -3.698,-7.71623 -6.7219,-15.73206 a 198.01918,198.01918 0 0 1 -9.34078,-33.367 200.87418,200.87418 0 0 1 0.041,-73.98045 A 197.88137,197.88137 0 0 1 530.324,516.05063 199.08091,199.08091 0 0 1 703.41371,412.9917 q 7.33682,-0.0509 14.66347,0.42449 7.066,0.47 14.088,1.41786 6.952,0.95079 13.82736,2.39389 6.73038,1.4208 13.355,3.29017 6.48924,1.84088 12.8432,4.11821 6.44067,2.31259 12.7085,5.06391 6.3891,2.79015 12.56139,6.04592 6.16559,3.24277 12.09984,6.9069 c 3.71356,2.2975 7.36439,4.705 10.91293,7.25121 q 5.48994,3.93921 10.72616,8.20808 c 3.603,2.93077 7.0801,6.01877 10.46193,9.202 q 5.40071,5.08362 10.4077,10.563 4.9978,5.44733 9.57009,11.27034 c 3.4,4.31833 6.6383,8.77214 9.66035,13.36317 3.10448,4.71627 6.03931,9.55546 8.74828,14.51488 a 200.21456,200.21456 0 0 1 10.06824,21.36634 206.9737,206.9737 0 0 1 7.97272,24.37127 243.74067,243.74067 0 0 0 -51.67776,-120.94126 245.663,245.663 0 0 0 -75.01182,-62.48165 242.85789,242.85789 0 0 0 -95.94806,-28.3044 q -4.267,-0.3414 -8.54423,-0.53426 z"
       shape-rendering="geometricPrecision"
       id="path60"
       style="fill:#ffffff" />
  </g>
</svg>
