<?xml version="1.0" encoding="UTF-8" standalone="no"?>
<svg
   height="48"
   width="48"
   version="1.1"
   id="svg37"
   sodipodi:docname="pav.svg"
   inkscape:version="1.1.2 (0a00cf5339, 2022-02-04)"
   xmlns:inkscape="http://www.inkscape.org/namespaces/inkscape"
   xmlns:sodipodi="http://sodipodi.sourceforge.net/DTD/sodipodi-0.dtd"
   xmlns:xlink="http://www.w3.org/1999/xlink"
   xmlns="http://www.w3.org/2000/svg"
   xmlns:svg="http://www.w3.org/2000/svg">
  <defs
     id="defs41" />
  <sodipodi:namedview
     id="namedview39"
     pagecolor="#ffffff"
     bordercolor="#666666"
     borderopacity="1.0"
     inkscape:pageshadow="2"
     inkscape:pageopacity="0.0"
     inkscape:pagecheckerboard="0"
     showgrid="false"
     inkscape:snap-page="true"
     inkscape:zoom="15.145833"
     inkscape:cx="24"
     inkscape:cy="23.933975"
     inkscape:window-width="1920"
     inkscape:window-height="1026"
     inkscape:window-x="0"
     inkscape:window-y="28"
     inkscape:window-maximized="1"
     inkscape:current-layer="svg37" />
  <linearGradient
     id="a">
    <stop
       offset="0"
       stop-color="#b3b3b3"
       id="stop2" />
    <stop
       offset="1"
       stop-color="#f2f2f2"
       id="stop4" />
  </linearGradient>
  <linearGradient
     id="b"
     gradientUnits="userSpaceOnUse"
     x1="369.636072761072"
     x2="349.879021011072"
     xlink:href="#a"
     y1="546.624631860836"
     y2="503.5415431524" />
  <radialGradient
     id="c"
     cx="353.8006"
     cy="529.0531"
     gradientTransform="matrix(1.6045608,0.02635776,-0.03103668,1.8893978,-198.2728,-477.32015)"
     gradientUnits="userSpaceOnUse"
     r="13.381738">
    <stop
       offset="0"
       stop-color="#333"
       id="stop8" />
    <stop
       offset="1"
       stop-color="#1a1a1a"
       id="stop10" />
  </radialGradient>
  <radialGradient
     id="d"
     cx="58.827682"
     cy="634.80988"
     gradientTransform="matrix(1.1567871,0.31572479,-0.51127046,1.8732489,315.33611,-572.53802)"
     gradientUnits="userSpaceOnUse"
     r="4.419524">
    <stop
       offset="0"
       stop-color="#b3b3b3"
       id="stop13" />
    <stop
       offset="1"
       stop-color="#666"
       id="stop15" />
  </radialGradient>
  <linearGradient
     id="e"
     gradientUnits="userSpaceOnUse"
     x1="346.32144"
     x2="357.19644"
     xlink:href="#a"
     y1="545.54797"
     y2="528.04797" />
  <g
     id="g867"
     transform="matrix(0.66745976,0,0,0.66745976,7.9809368,7.9809672)">
    <g
       transform="matrix(1.0231738,0,0,1.0231738,-341.56863,-514.08089)"
       id="g35">
      <path
         d="m 352.45907,504.16956 a 24.335456,11.551657 59.254433 0 0 -4.32877,1.90625 24.335456,11.551657 59.254433 0 0 -1.35385,1.49414 24.335456,11.551657 59.254433 0 0 -1.40296,4.59179 c -0.14199,0.35426 -0.27531,0.70995 -0.59145,1.4004 -0.5432,1.97006 -0.85174,4.06439 -1.15932,7.86718 -0.0522,0.64591 -0.0823,0.97841 -0.12183,1.22852 -0.10342,-0.0443 -0.90733,0.75975 -1.23398,1.23828 -0.11268,0.16506 -0.21111,0.3478 -0.30849,0.53125 -0.23729,0.16788 -0.45609,0.32066 -0.96676,0.65625 -0.77135,0.5069 -1.59441,1.0809 -1.82937,1.27539 -1.27598,1.05621 -2.04538,2.61891 -2.31077,4.69141 -0.10637,0.83092 -0.073,2.38343 0.0688,3.19922 0.19157,1.10196 0.40859,1.8756 0.82133,2.92968 1.73391,4.42809 5.43267,7.8315 9.06429,8.3418 0.50044,0.0703 1.41427,0.0573 1.91189,-0.0273 0.78712,-0.13374 1.32027,-0.3429 3.32272,-1.29883 0.18637,-0.089 0.34159,-0.15033 0.51089,-0.22461 0.0344,0.005 0.0698,0.0133 0.10414,0.0176 0.38942,0.0485 1.17817,0.027 1.58178,-0.043 0.48707,-0.0844 1.0605,-0.26316 1.11413,-0.34375 0.33926,0.14554 0.90769,0.40361 1.80577,0.84179 4.12195,2.01113 5.62592,2.56816 8.80492,3.25782 0.40873,0.0887 1.05243,0.23452 1.42852,0.32422 0.60429,0.14417 1.34229,0.27361 1.83919,0.32421 0.36447,0.0371 1.17927,0.0298 1.57785,-0.0156 0.47656,-0.0543 0.90533,-0.15325 1.31454,-0.27539 a 24.335456,11.551657 59.254433 0 0 2.68412,-1.58789 24.335456,11.551657 59.254433 0 0 1.47568,-1.60156 24.335456,11.551657 59.254433 0 0 -7.64168,-29.56641 l -0.0217,-0.0332 a 24.335456,11.551657 59.254433 0 0 -16.15971,-11.09961 z m 1.17897,3.16992 a 21.277026,10.010041 59.97479 0 1 13.93539,9.75195 l 0.0235,0.0254 a 21.277026,10.010041 59.97479 0 1 6.59043,25.97461 21.277026,10.010041 59.97479 0 1 -0.58753,0.77344 21.277026,10.010041 59.97479 0 1 -16.98498,-8.73633 21.277026,10.010041 59.97479 0 1 -6.60417,-25.97851 21.277026,10.010041 59.97479 0 1 0.59144,-0.78125 21.277026,10.010041 59.97479 0 1 3.03584,-1.0293 z"
         fill-opacity="0.666667"
         id="path19" />
      <path
         d="m 367.6578,515.68772 a 21.904689,10.274122 60.208804 0 1 6.75428,26.77998 21.904689,10.274122 60.208804 0 1 -18.70837,-7.56399 21.904689,10.274122 60.208804 0 1 -6.76946,-26.78611 21.904689,10.274122 60.208804 0 1 18.70287,7.54226"
         fill="url(#c)"
         id="path21"
         style="fill:url(#c)" />
      <path
         d="m 64.949565,634.40631 a 4.4195242,8.6064425 0 0 1 -4.417731,8.60644 4.4195242,8.6064425 0 0 1 -4.421316,-8.59945 4.4195242,8.6064425 0 0 1 4.414143,-8.61343 4.4195242,8.6064425 0 0 1 4.424898,8.59247"
         fill="url(#d)"
         transform="rotate(-28.350251)"
         id="path23"
         style="fill:url(#d)" />
      <path
         d="m 369.09595,547.59568 c -0.49391,-0.0506 -1.22747,-0.18118 -1.82812,-0.32535 -0.37383,-0.0897 -1.0121,-0.23569 -1.41837,-0.32436 -3.15988,-0.68966 -4.65636,-1.24659 -8.75351,-3.25772 -1.0957,-0.53784 -2.08711,-1.00244 -2.20312,-1.03244 -0.55342,-0.14314 -1.4645,0.10531 -2.88104,0.78562 -1.9904,0.95593 -2.52062,1.1643 -3.30301,1.29804 -0.49463,0.0846 -1.40447,0.0976 -1.90189,0.0273 -3.60978,-0.5103 -7.28593,-3.91429 -9.00941,-8.34238 -0.41026,-1.05408 -0.6258,-1.82773 -0.81623,-2.92969 -0.14097,-0.81579 -0.17414,-2.3672 -0.0684,-3.19812 0.26379,-2.0725 1.0292,-3.63556 2.29752,-4.69177 0.23354,-0.19449 1.05194,-0.76835 1.81865,-1.27525 1.34983,-0.89242 1.41093,-0.93946 1.92707,-1.48349 0.62021,-0.65374 0.54711,-0.4229 0.68771,-2.17168 0.30573,-3.80279 0.61233,-5.89581 1.15227,-7.86587 1.67932,-3.68986 0.32116,-2.83922 1.96971,5.33462 0.46724,2.2335 0.96698,3.90261 1.63503,5.46093 1.57028,3.66294 2.81253,6.06036 4.49342,8.67188 3.95825,6.14972 8.94404,10.92382 13.41423,12.84468 3.3615,1.35011 7.89741,0.61807 8.24839,0.61161 -1.09634,1.10314 -2.27177,1.66068 -3.89253,1.84635 -0.39618,0.0454 -1.20613,0.0542 -1.56841,0.0171 z"
         fill="url(#e)"
         id="path25"
         style="fill:url(#e)" />
      <path
         d="m 351.74715,504.04248 a 24.297383,11.500165 59.493793 0 0 -4.96914,2.77236 24.297383,11.500165 59.493793 0 0 7.61204,29.57584 24.297383,11.500165 59.493793 0 0 21.03768,8.35093 24.297383,11.500165 59.493793 0 0 -7.59611,-29.56785 l -0.0219,-0.0318 a 24.297383,11.500165 59.493793 0 0 -16.06256,-11.0994 z m 1.85222,2.54333 a 21.245135,9.9647658 60.208804 0 1 13.85185,9.75106 l 0.0219,0.0259 a 21.245135,9.9647658 60.208804 0 1 6.55051,25.97495 21.245135,9.9647658 60.208804 0 1 -18.14582,-7.33719 21.245135,9.9647658 60.208804 0 1 -6.56444,-25.97894 21.245135,9.9647658 60.208804 0 1 4.286,-2.43577 z"
         fill="#333333"
         id="path27" />
      <path
         d="m 352.42634,503.41609 a 24.297383,11.500165 59.493793 0 0 -4.96914,2.77236 24.297383,11.500165 59.493793 0 0 7.61203,29.57584 24.297383,11.500165 59.493793 0 0 21.03768,8.35093 24.297383,11.500165 59.493793 0 0 -7.59611,-29.56786 l -0.0219,-0.0318 a 24.297383,11.500165 59.493793 0 0 -16.06256,-11.09941 z m 1.85221,2.54332 a 21.245135,9.9647658 60.208804 0 1 13.85185,9.75106 l 0.0219,0.0259 a 21.245135,9.9647658 60.208804 0 1 6.5505,25.97495 21.245135,9.9647658 60.208804 0 1 -18.14582,-7.3372 21.245135,9.9647658 60.208804 0 1 -6.56444,-25.97894 21.245135,9.9647658 60.208804 0 1 4.286,-2.43577 z"
         fill="url(#b)"
         id="path29"
         style="fill:url(#b)" />
      <path
         d="m 352.62214,543.2336 c -1.61732,-0.20269 -3.39376,-1.04642 -5.02827,-2.38818 -0.66263,-0.54396 -1.82734,-1.72664 -2.36608,-2.4026 -2.06027,-2.58502 -3.47329,-5.71182 -3.95931,-8.76137 -0.13577,-0.85178 -0.18732,-2.4401 -0.10306,-3.1744 0.15555,-1.35549 0.53697,-2.49143 1.13004,-3.36548 0.33069,-0.48737 1.16209,-1.3211 1.23985,-1.24333 0.0139,0.0139 -0.009,0.69589 -0.053,1.51541 -0.16172,3.06898 -0.0794,4.32797 0.40288,6.16622 1.16045,4.42265 4.12553,8.75083 7.51811,10.97436 0.63598,0.41682 1.7275,1.0454 3.03658,1.74867 0.49399,0.26537 0.89139,0.50536 0.88309,0.53329 -0.0227,0.0767 -0.63116,0.26779 -1.12919,0.35465 -0.40118,0.07 -1.18443,0.0912 -1.57151,0.0427 z"
         fill="#2b2d30"
         id="path31" />
      <path
         d="m 352.62214,543.2336 c -1.61732,-0.20269 -3.39376,-1.04642 -5.02827,-2.38818 -0.66263,-0.54396 -1.82734,-1.72664 -2.36608,-2.4026 -2.06027,-2.58502 -3.47329,-5.71182 -3.95931,-8.76137 -0.13577,-0.85178 -0.18732,-2.4401 -0.10306,-3.1744 0.15555,-1.35549 0.53697,-2.49143 1.13004,-3.36548 0.33069,-0.48737 1.16209,-1.3211 1.23985,-1.24333 0.0139,0.0139 -0.009,0.69589 -0.053,1.51541 -0.16172,3.06898 -0.0794,4.32797 0.40288,6.16622 1.16045,4.42265 4.12553,8.75083 7.51811,10.97436 0.63598,0.41682 1.7275,1.0454 3.03658,1.74867 0.49399,0.26537 0.89139,0.50536 0.88309,0.53329 -0.0227,0.0767 -0.63116,0.26779 -1.12919,0.35465 -0.40118,0.07 -1.18443,0.0912 -1.57151,0.0427 z"
         fill="#2b2d30"
         id="path33" />
    </g>
  </g>
  <rect
     style="fill:none"
     id="rect891"
     width="48"
     height="48"
     x="0"
     y="0" />
</svg>
