<?xml version="1.0" encoding="UTF-8" standalone="no"?>
<svg
   height="48"
   viewBox="0 0 48 48"
   width="48"
   version="1.1"
   id="svg29"
   sodipodi:docname="pcmanfm.svg"
   inkscape:version="1.1.2 (0a00cf5339, 2022-02-04)"
   xmlns:inkscape="http://www.inkscape.org/namespaces/inkscape"
   xmlns:sodipodi="http://sodipodi.sourceforge.net/DTD/sodipodi-0.dtd"
   xmlns="http://www.w3.org/2000/svg"
   xmlns:svg="http://www.w3.org/2000/svg">
  <defs
     id="defs33" />
  <sodipodi:namedview
     id="namedview31"
     pagecolor="#ffffff"
     bordercolor="#666666"
     borderopacity="1.0"
     inkscape:pageshadow="2"
     inkscape:pageopacity="0.0"
     inkscape:pagecheckerboard="0"
     showgrid="false"
     inkscape:snap-page="true"
     inkscape:zoom="15.145833"
     inkscape:cx="24"
     inkscape:cy="24.858322"
     inkscape:window-width="1920"
     inkscape:window-height="1026"
     inkscape:window-x="0"
     inkscape:window-y="28"
     inkscape:window-maximized="1"
     inkscape:current-layer="svg29" />
  <linearGradient
     id="a"
     gradientUnits="userSpaceOnUse"
     x1="25.874015702106"
     x2="25.874015702106"
     y1="44.602598571931"
     y2="4.752125677021">
    <stop
       offset="0"
       stop-color="#97a9b1"
       id="stop2" />
    <stop
       offset="1"
       stop-color="#cfdce1"
       id="stop4" />
  </linearGradient>
  <linearGradient
     id="b"
     gradientUnits="userSpaceOnUse"
     x1="26.090363702893"
     x2="26.090363702893"
     y1="40.494382723659"
     y2="5.673519597038">
    <stop
       offset="0"
       stop-color="#1d1e1e"
       id="stop7" />
    <stop
       offset="1"
       stop-color="#44484c"
       id="stop9" />
  </linearGradient>
  <linearGradient
     id="c"
     gradientUnits="userSpaceOnUse"
     x1="23.454771943309"
     x2="23.454771943309"
     y1="36.636456292964"
     y2="10.911951532753">
    <stop
       offset="0"
       stop-color="#9fb0b8"
       id="stop12" />
    <stop
       offset="1"
       stop-color="#cedbe0"
       id="stop14" />
  </linearGradient>
  <rect
     style="fill:none"
     id="rect880"
     width="48"
     height="48"
     x="0"
     y="0" />
  <g
     id="g856"
     transform="matrix(0.71048009,0,0,0.71048009,6.9484772,6.7516644)">
    <g
       stroke-width="0.916667"
       id="g27">
      <rect
         fill-opacity="0.666667"
         height="38.409515"
         ry="2.6566999"
         width="44"
         x="2.000001"
         y="5.572485"
         id="rect17" />
      <rect
         fill="url(#a)"
         height="38.409515"
         ry="2.6566999"
         width="44"
         x="2.000001"
         y="4.5720291"
         id="rect19"
         style="fill:url(#a)" />
      <circle
         cx="24.173779"
         cy="23.920527"
         fill="url(#b)"
         r="15.327117"
         id="circle21"
         style="fill:url(#b)" />
      <path
         d="m 24.304021,11.083242 c -0.05903,0 -0.124392,0.0018 -0.196946,0.0018 -0.249425,0.0018 -0.347169,0.07929 -0.388511,0.33121 -0.07498,0.456858 -0.140195,0.915191 -0.20768,1.373213 -0.04428,0.301629 -0.139902,0.395725 -0.433263,0.4279 l -1.677573,-1.677574 c -0.04638,-0.04638 -0.09848,-0.06627 -0.170087,-0.06627 -0.0583,0 -0.128911,0.01274 -0.218424,0.03584 -0.09538,0.02484 -0.191629,0.05161 -0.286458,0.07874 -0.329954,0.0938 -0.386696,0.19338 -0.340166,0.520996 0.06307,0.44231 0.113694,0.886637 0.166503,1.330249 0.02603,0.218661 -0.0616,0.373908 -0.27214,0.454749 -0.126215,0.0484 -0.249791,0.0997 -0.374183,0.152185 -0.140461,0.05968 -0.225546,0.07874 -0.311529,0.0931 L 18.24721,12.793054 c -0.06096,-0.06096 -0.126528,-0.09489 -0.198724,-0.09489 -0.05628,0 -0.116885,0.01989 -0.182619,0.06087 -0.150681,0.09419 -0.311034,0.171169 -0.454749,0.273927 -0.09787,0.06976 -0.225601,0.152176 -0.109221,0.268556 l 0.08232,0.08232 c 0.01723,0.02988 0.02979,0.06857 0.04299,0.102052 0.14178,0.358059 0.282672,0.715935 0.424315,1.074214 0.125437,0.317873 0.05161,0.577051 -0.223795,0.787765 -0.09647,0.0737 -0.194434,0.147574 -0.290033,0.221999 -0.165018,0.128617 -0.273955,0.191574 -0.384927,0.191574 -0.109816,0 -0.22088,-0.06297 -0.38851,-0.18799 -0.348471,-0.259903 -0.694788,-0.524572 -1.05095,-0.773438 -0.06142,-0.04281 -0.170335,-0.08415 -0.241697,-0.08415 -0.02255,0 -0.04162,0.0046 -0.05372,0.0143 -0.23309,0.186808 -0.43846,0.406194 -0.639164,0.599775 0.09519,0.100238 0.152588,0.15004 0.196946,0.209468 0.264376,0.354539 0.525516,0.71137 0.787756,1.067055 0.176265,0.239754 0.176275,0.478261 -0.0037,0.717942 -0.10296,0.137069 -0.208423,0.272635 -0.313308,0.408201 -0.126353,0.162635 -0.216608,0.234538 -0.345546,0.234538 -0.07067,0 -0.153239,-0.02209 -0.2596,-0.0627 -0.446289,-0.169922 -0.888864,-0.345794 -1.332027,-0.522784 -0.05436,-0.02163 -0.109175,-0.03758 -0.159344,-0.03758 -0.06444,0 -0.122045,0.0264 -0.166503,0.09489 -0.144733,0.223814 -0.274615,0.457646 -0.406414,0.680332 l 1.493159,1.493167 c -0.08443,0.215875 -0.142625,0.443502 -0.229167,0.658855 -0.112081,0.278905 -0.213547,0.370608 -0.435059,0.370608 -0.06114,0 -0.130909,-0.0083 -0.213052,-0.01971 -0.429275,-0.06242 -0.862052,-0.10285 -1.292637,-0.157548 -0.02457,-0.0018 -0.04776,-0.0055 -0.06985,-0.0055 -0.172884,0 -0.272095,0.09552 -0.316892,0.277503 -0.02722,0.110155 -0.06142,0.218111 -0.0913,0.327644 -0.04648,0.169977 -0.0605,0.245428 0.0018,0.307936 l 1.708007,1.708006 c -0.01192,0.0649 -0.01989,0.130176 -0.03043,0.195149 -0.03034,0.189035 -0.144687,0.285835 -0.325848,0.313317 -0.393268,0.05977 -0.789901,0.108744 -1.181638,0.177247 -0.525599,0.09157 -0.626964,0.01687 -0.592607,0.666013 7.88e-4,0.0143 0,0.02695 0,0.04116 1.01e-4,0.135823 0.02878,0.231138 0.0931,0.295405 l 1.842289,1.84229 c -0.05381,0.02649 -0.102401,0.04978 -0.182618,0.08415 -0.314115,0.134392 -0.623966,0.27786 -0.939941,0.40821 -0.605477,0.249296 -0.461304,0.287127 -0.345547,0.716145 0.04317,0.160481 0.09224,0.260563 0.152185,0.320476 l 1.82259,1.82259 c -0.213473,0.166357 -0.428257,0.332017 -0.640952,0.49951 -0.11329,0.08938 -0.15762,0.191024 -0.06444,0.329423 0.08305,0.123429 0.152735,0.256391 0.225582,0.386723 0.02026,0.03639 0.0429,0.06628 0.06627,0.08956 l 1.838705,1.838705 c -0.239277,0.309155 -0.222878,0.303591 0.196937,0.735845 l 9.139808,9.139809 h 19.13728 c 1.471809,0 2.656903,-1.185085 2.656903,-2.656904 V 27.273317 L 34.007753,15.281456 c -0.150911,-0.141772 -0.297174,-0.276916 -0.440422,-0.41536 -0.121174,-0.117013 -0.189337,-0.173672 -0.26498,-0.173672 -0.06692,0 -0.13926,0.04382 -0.257813,0.130699 -0.0055,0.0037 -0.01091,0.0073 -0.01613,0.01072 l -1.727697,-1.727706 c -0.155329,-0.09428 -0.338965,-0.21373 -0.529952,-0.320467 -0.107764,-0.06022 -0.180923,-0.0913 -0.243485,-0.0913 -0.08323,0 -0.146475,0.0561 -0.245282,0.179034 -0.140543,0.174744 -0.280262,0.350057 -0.418944,0.526369 l -1.693689,-1.693689 c -0.14179,-0.05033 -0.33912,-0.133136 -0.54427,-0.191565 -0.109432,-0.03126 -0.191758,-0.04831 -0.256016,-0.04831 -0.141479,0 -0.200668,0.08763 -0.298999,0.315104 -0.168465,0.389611 -0.336691,0.777517 -0.504881,1.16732 l -1.777829,-1.777829 c -0.07535,-0.07535 -0.211375,-0.08589 -0.481608,-0.08589 l -0.0018,-0.0018 z"
         fill-opacity="0.2"
         id="path23" />
      <path
         d="m 37.127555,23.545499 c -0.470241,-0.07526 -0.942581,-0.137243 -1.411117,-0.221705 -0.09963,-0.01797 -0.233631,-0.08947 -0.268537,-0.171618 -0.07315,-0.171783 -0.09148,-0.366868 -0.131267,-0.552878 -0.02053,-0.09696 -0.01512,-0.208102 -0.0627,-0.289117 -0.11341,-0.193408 0.0037,-0.306561 0.123154,-0.416442 0.05491,-0.05088 0.135062,-0.07654 0.205673,-0.107992 0.422363,-0.186203 0.847027,-0.367483 1.26752,-0.557664 0.232788,-0.105361 0.285735,-0.234593 0.219166,-0.477794 -0.02264,-0.08195 -0.04262,-0.164789 -0.06802,-0.245987 -0.07031,-0.224474 -0.147895,-0.304169 -0.338195,-0.304169 -0.03722,0 -0.07874,0.0018 -0.125419,0.0092 -0.430714,0.05207 -0.86108,0.105958 -1.291125,0.161324 -0.06298,0.0083 -0.117608,0.01338 -0.165486,0.01338 -0.20096,0 -0.285248,-0.08195 -0.39787,-0.330321 -0.110284,-0.24321 -0.222062,-0.485724 -0.327415,-0.731143 -0.01632,-0.0385 -0.0198,-0.103088 9.17e-4,-0.133265 0.0693,-0.09696 0.141533,-0.196946 0.232623,-0.27181 0.363522,-0.298191 0.73512,-0.585924 1.101952,-0.879816 0.149939,-0.12023 0.246758,-0.249975 0.08681,-0.44033 -0.07187,-0.08553 -0.116288,-0.194563 -0.175789,-0.291005 -0.09429,-0.152433 -0.154174,-0.21681 -0.25366,-0.21681 -0.05537,0 -0.123026,0.01989 -0.215664,0.05564 -0.438396,0.168933 -0.875591,0.341514 -1.311796,0.515185 -0.07443,0.02942 -0.146034,0.04657 -0.213931,0.04657 -0.106801,0 -0.204105,-0.04253 -0.288265,-0.146016 -0.143815,-0.177283 -0.29347,-0.351872 -0.416918,-0.542896 -0.219349,-0.338809 -0.211777,-0.351138 0.03272,-0.68354 0.316883,-0.430879 0.63415,-0.861291 0.966231,-1.312593 -0.150911,-0.141772 -0.297578,-0.276586 -0.440825,-0.41503 -0.121174,-0.117013 -0.190117,-0.173791 -0.26576,-0.173791 -0.06692,0 -0.139352,0.04464 -0.257904,0.131542 -0.37917,0.278236 -0.755352,0.560386 -1.134879,0.838246 -0.08736,0.06371 -0.175707,0.09577 -0.263945,0.09577 -0.09002,0 -0.18008,-0.03346 -0.268905,-0.10065 -0.170454,-0.129012 -0.35133,-0.247968 -0.507035,-0.393333 -0.128746,-0.120505 -0.27291,-0.283424 -0.209899,-0.465455 0.193206,-0.56013 0.418248,-1.10946 0.642015,-1.691993 -0.155329,-0.09429 -0.339267,-0.213299 -0.530255,-0.320036 -0.107763,-0.06023 -0.181344,-0.09241 -0.243906,-0.09241 -0.08323,0 -0.146988,0.05665 -0.245795,0.179538 -0.259005,0.322035 -0.50909,0.65164 -0.771476,0.970705 -0.09369,0.113529 -0.197129,0.237435 -0.324381,0.300327 -0.02402,0.0121 -0.05619,0.01742 -0.09429,0.01742 -0.295708,0 -0.95238,-0.330129 -1.034615,-0.528 -0.0018,-0.0073 -0.0018,-0.01421 -0.0073,-0.02044 -0.118699,-0.209202 -0.06673,-0.428441 -0.03905,-0.646085 0.04978,-0.39237 0.09922,-0.785052 0.159867,-1.261902 -0.14179,-0.05032 -0.340304,-0.131926 -0.545454,-0.190355 -0.109431,-0.03126 -0.190538,-0.04941 -0.254796,-0.04941 -0.141479,0 -0.200649,0.08763 -0.29898,0.315077 -0.178338,0.412436 -0.359132,0.823652 -0.536864,1.236464 -0.07058,0.162901 -0.182564,0.27643 -0.355612,0.27643 -0.0121,0 -0.02301,-5.04e-4 -0.03511,-9.17e-4 -0.254825,-0.02117 -0.507944,-0.06609 -0.760815,-0.105719 -0.170583,-0.0264 -0.260132,-0.139782 -0.286752,-0.302747 -0.0594,-0.363908 -0.124227,-0.727339 -0.16973,-1.093125 -0.08131,-0.650064 -0.02869,-0.707062 -0.621573,-0.707062 -0.05903,0 -0.124649,6.14e-4 -0.197203,9.17e-4 -0.249425,0.0018 -0.346665,0.07883 -0.388007,0.330797 -0.07498,0.456858 -0.141276,0.91553 -0.208761,1.373552 -0.04537,0.30943 -0.141048,0.402435 -0.452797,0.432153 -0.155696,0.01485 -0.311447,0.0319 -0.466611,0.05161 -0.06563,0.0083 -0.121541,0.01348 -0.170087,0.01348 -0.191455,0 -0.269088,-0.07682 -0.375824,-0.319742 -0.17414,-0.396697 -0.338626,-0.797592 -0.50964,-1.196058 -0.09261,-0.215774 -0.16093,-0.29788 -0.305745,-0.29788 -0.0583,0 -0.128892,0.01338 -0.218405,0.03648 -0.09538,0.02484 -0.19107,0.05106 -0.285899,0.07819 -0.329954,0.0938 -0.386714,0.194004 -0.340184,0.52162 0.06307,0.44231 0.112686,0.886408 0.165495,1.33002 0.02603,0.218661 -0.06013,0.373587 -0.270673,0.454428 -0.126216,0.0484 -0.251121,0.100237 -0.375513,0.152726 -0.180097,0.07645 -0.300868,0.119295 -0.399621,0.119295 -0.150434,0 -0.249791,-0.09932 -0.429797,-0.330816 -0.258583,-0.331971 -0.522693,-0.65956 -0.781871,-0.990623 -0.07388,-0.09439 -0.153642,-0.145411 -0.244218,-0.145411 -0.05628,0 -0.116765,0.01971 -0.182499,0.06068 -0.150682,0.09419 -0.312657,0.170463 -0.456372,0.273222 -0.111247,0.07929 -0.260086,0.176064 -0.04638,0.319055 0.03502,0.02337 0.04464,0.08736 0.06279,0.13343 0.141781,0.358059 0.28259,0.716329 0.424234,1.074608 0.125436,0.317873 0.05179,0.578188 -0.22364,0.788902 -0.09647,0.0737 -0.19371,0.146181 -0.289309,0.220614 -0.165018,0.128617 -0.274459,0.192546 -0.385431,0.192546 -0.109807,0 -0.220935,-0.0627 -0.388565,-0.187715 -0.348471,-0.259903 -0.693624,-0.52481 -1.049786,-0.773676 -0.06142,-0.04281 -0.171719,-0.08479 -0.243081,-0.08479 -0.02255,0 -0.04107,0.0037 -0.05317,0.01375 -0.23309,0.186808 -0.439074,0.406991 -0.639778,0.600573 0.09519,0.100237 0.152542,0.149765 0.1969,0.209192 0.264376,0.354539 0.52547,0.711416 0.78771,1.067101 0.176266,0.239754 0.176101,0.477794 -0.0037,0.717475 -0.10296,0.137069 -0.207066,0.272782 -0.311951,0.408348 -0.126353,0.162635 -0.216736,0.23495 -0.345675,0.23495 -0.07068,0 -0.153166,-0.02172 -0.259526,-0.06233 -0.446289,-0.169922 -0.889946,-0.346197 -1.333109,-0.523187 -0.05436,-0.02163 -0.10813,-0.03685 -0.158299,-0.03685 -0.06444,0 -0.122503,0.02502 -0.166962,0.0935 -0.144732,0.223813 -0.273863,0.457627 -0.405661,0.680313 0.499198,0.400877 0.970887,0.776719 1.438635,1.157686 0.08232,0.06719 0.130606,0.144191 0.07535,0.274257 -0.09912,0.233613 -0.156347,0.484559 -0.251112,0.720363 -0.112081,0.278905 -0.212584,0.370571 -0.434097,0.370571 -0.06114,0 -0.131275,-0.0073 -0.213418,-0.01888 -0.429275,-0.06242 -0.861566,-0.103666 -1.292152,-0.158363 -0.02457,-0.0018 -0.04767,-0.0046 -0.06976,-0.0046 -0.172883,0 -0.273561,0.09508 -0.318358,0.277063 -0.02722,0.110156 -0.06142,0.218506 -0.0913,0.328038 -0.0737,0.269262 -0.06334,0.300493 0.198165,0.420604 0.264064,0.121449 0.533151,0.231944 0.799709,0.348122 0.20174,0.08763 0.410822,0.163258 0.601407,0.27104 0.09627,0.05445 0.229157,0.173287 0.22385,0.254668 -0.02117,0.307102 -0.0943,0.61062 -0.143844,0.915906 -0.03034,0.189026 -0.144631,0.28699 -0.325792,0.314472 -0.393269,0.05977 -0.788398,0.108359 -1.180135,0.176862 -0.525599,0.09157 -0.627009,0.01577 -0.592653,0.664959 7.89e-4,0.0143 0,0.0286 0,0.04281 1.93e-4,0.248398 0.09139,0.360708 0.333172,0.396999 0.323565,0.04867 0.648752,0.09075 0.972409,0.13816 0.176165,0.02613 0.362102,0.03071 0.523719,0.09478 0.124768,0.04932 0.275761,0.157575 0.313445,0.27301 0.0572,0.175249 0.02539,0.379354 0.03282,0.571056 0.02118,0.541668 0.0528,0.543914 -0.422739,0.747799 -0.314114,0.134392 -0.624956,0.276512 -0.940931,0.406862 -0.605477,0.249297 -0.460497,0.287788 -0.34474,0.716806 0.08763,0.32549 0.196597,0.401252 0.379766,0.401252 0.06279,0 0.134328,-0.0092 0.216617,-0.0198 0.430054,-0.0561 0.860714,-0.110036 1.292152,-0.152001 0.02759,-0.0018 0.05381,-0.0037 0.07883,-0.0037 0.211778,0 0.336069,0.09707 0.428111,0.305424 0.07498,0.16874 0.146923,0.338663 0.213483,0.510758 0.134695,0.347811 0.0931,0.535929 -0.137106,0.712635 -0.381288,0.293095 -0.759917,0.589554 -1.137868,0.887196 -0.113291,0.08938 -0.158519,0.192545 -0.06536,0.330944 0.08305,0.123429 0.153285,0.255906 0.226132,0.386237 0.05601,0.100339 0.120771,0.151278 0.209367,0.151278 0.04125,0 0.08818,-0.01082 0.141588,-0.03373 0.438525,-0.184433 0.882732,-0.35617 1.327554,-0.525057 0.09755,-0.03694 0.180867,-0.0561 0.255722,-0.0561 0.151223,0 0.267447,0.07801 0.395863,0.243311 0.11352,0.146309 0.22704,0.292866 0.334436,0.443529 0.167805,0.235565 0.167805,0.453842 9.17e-4,0.681487 -0.206708,0.283185 -0.417789,0.562824 -0.62502,0.84589 -0.39061,0.533326 -0.432657,0.405231 0.06142,0.913945 0.08131,0.08387 0.154834,0.123832 0.230899,0.123832 0.06976,0 0.1419,-0.03383 0.224308,-0.09874 0.352899,-0.277732 0.716458,-0.541869 1.079815,-0.806364 0.131936,-0.09587 0.239745,-0.143587 0.346849,-0.143587 0.109184,0 0.217717,0.04941 0.350707,0.147207 0.137729,0.101164 0.273222,0.205462 0.409063,0.30899 0.228305,0.173956 0.30492,0.440816 0.197019,0.717228 -0.170445,0.435976 -0.342613,0.871099 -0.523169,1.302794 -0.05408,0.129672 -0.03025,0.22099 0.08122,0.291243 0.132074,0.08287 0.267273,0.161315 0.404397,0.235932 0.06857,0.03749 0.131276,0.0561 0.188861,0.0561 0.101154,0 0.186908,-0.05747 0.262662,-0.171985 0.04088,-0.06178 0.08488,-0.121687 0.13166,-0.179208 0.235281,-0.289245 0.485907,-0.567536 0.703148,-0.869431 0.11209,-0.15587 0.219285,-0.245859 0.363852,-0.245859 0.04776,0 0.09982,0.0092 0.157273,0.03034 0.234117,0.08305 0.464539,0.177843 0.69025,0.281967 0.195268,0.09066 0.297953,0.340148 0.269252,0.533729 -0.06453,0.435545 -0.129946,0.872438 -0.165614,1.310889 -0.02915,0.358957 -0.0073,0.366043 0.341532,0.459653 0.09261,0.02521 0.18854,0.07627 0.277677,0.07627 0.0092,0 0.01861,-4.86e-4 0.02777,-9.17e-4 0.11208,-0.01485 0.272424,-0.06508 0.3135,-0.148509 0.205507,-0.416314 0.381645,-0.847449 0.562686,-1.275313 0.123164,-0.291665 0.210036,-0.388364 0.434115,-0.388364 0.05399,0 0.11605,0.0046 0.188421,0.01549 0.112686,0.01577 0.227819,0.02273 0.33814,0.04913 0.162534,0.03933 0.353082,0.05399 0.47234,0.151763 0.100549,0.08259 0.138087,0.264257 0.166228,0.409356 0.07159,0.369848 0.130066,0.742959 0.180565,1.116592 0.05958,0.441787 0.07315,0.470241 0.495046,0.470241 h 0.03639 c 0.04987,-2.39e-4 0.09993,-0.0046 0.14993,-0.0073 0.286467,-0.01082 0.311153,-0.04978 0.350322,-0.346179 0.05903,-0.448149 0.129269,-0.895372 0.212447,-1.339534 0.05729,-0.306368 0.197019,-0.418376 0.496302,-0.452384 0.148491,-0.01659 0.297165,-0.03098 0.445665,-0.04913 0.07388,-0.0092 0.137839,-0.01412 0.194425,-0.01412 0.248031,0 0.348287,0.09922 0.480553,0.400996 0.180281,0.411299 0.360406,0.822965 0.541347,1.233888 0.04088,0.093 0.08461,0.191583 0.192546,0.191583 0.01613,0 0.03318,-0.0018 0.05216,-0.0073 0.199375,-0.04877 0.398686,-0.101154 0.590462,-0.172104 0.055,-0.02026 0.122237,-0.113282 0.118204,-0.168025 -0.04253,-0.554171 -0.101264,-1.107049 -0.149692,-1.660835 -0.01788,-0.204829 0.110275,-0.325976 0.277622,-0.404708 0.173543,-0.08167 0.353741,-0.149032 0.531153,-0.222063 0.117251,-0.04822 0.211805,-0.07407 0.295671,-0.07397 0.144137,0 0.256676,0.07627 0.396651,0.245905 0.217763,0.264238 0.424481,0.537387 0.642006,0.801643 0.241853,0.293719 0.302628,0.428542 0.41711,0.428542 0.09379,0 0.223649,-0.09057 0.518815,-0.258445 0.175185,-0.09962 0.20901,-0.197276 0.124896,-0.391444 -0.191418,-0.440706 -0.353393,-0.89452 -0.520346,-1.345639 -0.04318,-0.116646 -0.135217,-0.352 0.01989,-0.46981 0.01788,-0.01366 0.155696,-0.09912 0.208514,-0.148427 0.09795,-0.09202 0.214638,-0.164294 0.320769,-0.248646 0.175845,-0.139718 0.298559,-0.209421 0.423693,-0.209421 0.12276,0 0.248096,0.0671 0.427946,0.201006 0.349085,0.259536 0.701195,0.515075 1.045971,0.77957 0.06673,0.05143 0.127426,0.07938 0.18602,0.07938 0.06197,0 0.121311,-0.03144 0.182792,-0.100339 0.09029,-0.10065 0.179419,-0.209431 0.289318,-0.284331 0.174635,-0.119057 0.150902,-0.223539 0.0374,-0.371599 -0.285624,-0.372038 -0.559918,-0.75306 -0.836513,-1.131863 -0.186551,-0.256199 -0.183645,-0.405488 0.0046,-0.650843 0.111724,-0.146556 0.231202,-0.288695 0.334061,-0.441558 0.13464,-0.199925 0.226325,-0.287302 0.370939,-0.287192 0.07984,0 0.175486,0.0264 0.303407,0.07544 0.438057,0.167658 0.876682,0.335161 1.309999,0.514818 0.04666,0.01934 0.08947,0.02832 0.128214,0.02832 0.09922,0 0.17523,-0.05683 0.24223,-0.139131 0.06508,-0.08048 0.103785,-0.18249 0.15586,-0.27368 0.123567,-0.215738 0.10319,-0.32197 -0.09835,-0.484202 -0.340486,-0.273157 -0.684071,-0.543097 -1.023421,-0.817749 -0.175597,-0.142212 -0.332191,-0.309393 -0.254742,-0.556756 0.06719,-0.214867 0.164532,-0.421584 0.262735,-0.624956 0.05491,-0.113996 0.116279,-0.263716 0.215307,-0.308852 0.09901,-0.04501 0.218313,-0.06032 0.336013,-0.06032 0.04657,0 0.09301,0.0018 0.13761,0.0073 0.432465,0.03758 0.863216,0.09962 1.294801,0.147831 0.02915,0.0037 0.05738,0.0046 0.08415,0.0046 0.131798,0 0.228186,-0.04877 0.24585,-0.237206 0.01357,-0.148794 0.05647,-0.306139 0.128746,-0.435976 0.137252,-0.246162 -0.03392,-0.300309 -0.196094,-0.370874 -0.417908,-0.18238 -0.838447,-0.359489 -1.254348,-0.545875 -0.261773,-0.117719 -0.391747,-0.361974 -0.358582,-0.647396 0.01723,-0.148179 0.03896,-0.296258 0.0572,-0.444693 0.03401,-0.275129 0.145246,-0.403856 0.421722,-0.450084 0.456665,-0.07682 0.913412,-0.152561 1.372617,-0.207964 0.198293,-0.02392 0.322776,-0.09627 0.345876,-0.298687 0.01934,-0.168648 0.03465,-0.339093 0.03502,-0.508585 0,-0.06197 -0.03098,-0.148793 -0.07746,-0.180216 -0.0726,-0.04978 -0.168814,-0.07287 -0.258189,-0.08745 z M 22.189381,15.113871 c 0.364274,-0.117132 0.753179,-0.173048 1.135548,-0.214436 0.297541,-0.03227 0.598565,-0.05069 0.898526,-0.05069 0.09844,0 0.196836,0.0018 0.294818,0.0073 1.903963,0.07975 3.632493,0.668525 5.170999,1.804541 1.06249,0.784281 1.921819,1.748211 2.561222,2.900232 0.223841,0.402939 0.439872,0.824698 0.562338,1.26478 0.103904,0.372469 0.127811,0.791853 0.07654,1.17579 -0.04629,0.342806 -0.337049,0.582734 -0.680616,0.681285 -0.252954,0.07251 -0.519979,0.12397 -0.782045,0.129296 -0.354722,0.0073 -0.709747,0.0092 -1.064745,0.0092 -0.451055,0 -0.902412,-0.0018 -1.353266,-0.0018 -0.486346,0 -0.972831,0.0083 -1.459058,0.0083 -0.355483,0 -0.710802,-0.0037 -1.065827,-0.01788 -0.369838,-0.01485 -0.750814,-0.101062 -1.099532,-0.229111 -0.57926,-0.212447 -0.954571,-0.675355 -1.259161,-1.19472 -0.611591,-1.042717 -1.230368,-2.081337 -1.826651,-3.132699 -0.302427,-0.533151 -0.593239,-1.077037 -0.833351,-1.639843 -0.298567,-0.700003 0.06077,-1.282343 0.724314,-1.496009 z m -1.190494,11.988038 c -0.138866,0.248518 -0.304599,0.48202 -0.442695,0.73084 -0.286284,0.515735 -0.553538,1.042122 -0.845625,1.554401 -0.239763,0.420264 -0.473504,0.856167 -0.901926,1.12079 -0.171903,0.106563 -0.377337,0.159069 -0.567775,0.236473 -0.466895,-0.05894 -0.81102,-0.29426 -1.094866,-0.602984 -0.482277,-0.523178 -0.917959,-1.098286 -1.180823,-1.756049 -0.312959,-0.782082 -0.567352,-1.593121 -0.775087,-2.410127 -0.20603,-0.809582 -0.251589,-1.648561 -0.224978,-2.486376 0.0308,-0.967514 0.262928,-1.892129 0.607768,-2.790709 0.088,-0.229809 0.175735,-0.463696 0.298568,-0.675345 0.2827,-0.486155 0.564392,-0.976049 0.89012,-1.432906 0.204655,-0.287009 0.461633,-0.55385 0.743068,-0.765536 0.254036,-0.191015 0.505808,-0.278584 0.743857,-0.278584 0.375467,0 0.716448,0.217891 0.977313,0.591066 0.366374,0.523005 0.680699,1.082978 1.003815,1.634885 0.521895,0.891385 1.034073,1.788205 1.545619,2.685521 0.121706,0.213318 0.255301,0.427644 0.329551,0.658607 0.07984,0.247922 0.10439,0.515185 0.139296,0.775931 0.08305,0.623736 -0.101365,1.178026 -0.422015,1.709794 -0.293709,0.488134 -0.544894,1.002118 -0.823185,1.500308 z m 11.937989,-0.264146 c -0.03731,0.08754 -0.04446,0.188989 -0.06206,0.284588 -0.188787,1.030507 -0.744205,1.877544 -1.371021,2.681305 -0.278612,0.357243 -0.597319,0.685447 -0.91796,1.00749 -0.83699,0.841656 -1.825495,1.458453 -2.922745,1.900763 -0.667306,0.269042 -1.353972,0.480719 -2.073876,0.554345 -0.472579,0.0484 -0.947953,0.127683 -1.419944,0.127683 -0.04996,0 -0.09993,-9.17e-4 -0.149646,-0.0018 -0.654537,-0.02521 -1.322585,-0.03676 -1.941299,-0.32724 -0.344318,-0.161691 -0.617815,-0.382791 -0.69619,-0.766673 -0.08607,-0.418257 -0.04657,-0.821975 0.252395,-1.163076 0.01329,-0.01513 0.02429,-0.03474 0.02979,-0.05408 0.08827,-0.306249 0.322172,-0.525708 0.473028,-0.795758 0.55572,-0.995849 1.13838,-1.977076 1.708749,-2.964436 0.169061,-0.293114 0.310108,-0.604982 0.501031,-0.882008 0.470599,-0.682504 1.134403,-1.038491 1.964848,-1.049125 0.352779,-0.0037 0.705494,-0.0046 1.058145,-0.0046 0.552429,0 1.104932,0.0018 1.657645,0.0018 0.522023,0 1.044175,-0.0073 1.566363,-0.0073 0.362285,0 0.724644,0.0018 1.086534,0.01384 0.491407,0.01439 0.972245,0.148793 1.18492,0.659734 0.09855,0.236665 0.189723,0.507879 0.07132,0.784602 z"
         fill="url(#c)"
         id="path25"
         style="fill:url(#c)" />
    </g>
  </g>
</svg>
