<?xml version="1.0" encoding="UTF-8" standalone="no"?>
<svg
   height="48"
   width="48"
   version="1.1"
   id="svg22"
   sodipodi:docname="power.svg"
   inkscape:version="1.1.2 (0a00cf5339, 2022-02-04)"
   xmlns:inkscape="http://www.inkscape.org/namespaces/inkscape"
   xmlns:sodipodi="http://sodipodi.sourceforge.net/DTD/sodipodi-0.dtd"
   xmlns="http://www.w3.org/2000/svg"
   xmlns:svg="http://www.w3.org/2000/svg">
  <defs
     id="defs26" />
  <sodipodi:namedview
     id="namedview24"
     pagecolor="#ffffff"
     bordercolor="#666666"
     borderopacity="1.0"
     inkscape:pageshadow="2"
     inkscape:pageopacity="0.0"
     inkscape:pagecheckerboard="0"
     showgrid="false"
     inkscape:snap-page="true"
     inkscape:zoom="15.145833"
     inkscape:cx="24"
     inkscape:cy="24"
     inkscape:window-width="1920"
     inkscape:window-height="1026"
     inkscape:window-x="0"
     inkscape:window-y="28"
     inkscape:window-maximized="1"
     inkscape:current-layer="svg22" />
  <linearGradient
     id="a"
     gradientUnits="userSpaceOnUse"
     x1="399.57144"
     x2="399.57144"
     y1="545.79797"
     y2="517.79797">
    <stop
       offset="0"
       stop-color="#3889e9"
       id="stop2" />
    <stop
       offset="1"
       stop-color="#5ea5fb"
       id="stop4" />
  </linearGradient>
  <linearGradient
     id="b"
     gradientUnits="userSpaceOnUse"
     x1="406.261427102156"
     x2="406.75200856436"
     y1="545.723118583684"
     y2="519.356703971946">
    <stop
       offset="0"
       stop-color="#566069"
       id="stop7" />
    <stop
       offset="1"
       stop-color="#6c7884"
       id="stop9" />
  </linearGradient>
  <rect
     style="fill:none"
     id="rect872"
     width="48"
     height="48"
     x="0"
     y="0" />
  <g
     id="g848"
     transform="matrix(0.60869564,0,0,0.60869564,9.3913063,9.3913027)">
    <g
       transform="matrix(1.6383893,0,0,1.6383893,-632.31159,-847.3547)"
       id="g20">
      <g
         stroke-width="1.3"
         transform="translate(0.024008,0.076424)"
         id="g16">
        <circle
           cx="400.57144"
           cy="531.79797"
           fill="none"
           r="13.999958"
           id="circle12" />
        <circle
           cx="400.57138"
           cy="531.79791"
           fill="url(#a)"
           r="0"
           id="circle14"
           style="fill:url(#a)" />
      </g>
      <path
         d="m 414.57143,531.798 a 13.999996,13.999996 0 0 1 -13.99999,14 13.999996,13.999996 0 0 1 -14.00001,-14 13.999996,13.999996 0 0 1 14.00001,-14 13.999996,13.999996 0 0 1 13.99999,14 z m -6.42621,-3.07344 c -0.59128,-1.18227 -1.42282,-2.17377 -2.49504,-2.97421 -0.3084,-0.235 -0.65725,-0.32681 -1.04652,-0.27543 -0.38928,0.0514 -0.6977,0.235 -0.92539,0.55072 -0.235,0.30839 -0.3249,0.65536 -0.26988,1.04097 0.0548,0.38577 0.23689,0.69592 0.5453,0.93091 0.71946,0.54343 1.27611,1.20812 1.66876,1.99396 0.39292,0.78571 0.58926,1.62306 0.58926,2.51153 0,0.76392 -0.14874,1.49271 -0.44607,2.18676 -0.29746,0.69402 -0.69958,1.29436 -1.20634,1.80113 -0.50677,0.50662 -1.10697,0.90873 -1.801,1.20621 -0.69404,0.29746 -1.42295,0.44632 -2.18675,0.44632 -0.76367,0 -1.49258,-0.14886 -2.18662,-0.44632 -0.69403,-0.29747 -1.29436,-0.69958 -1.80114,-1.20621 -0.50663,-0.50677 -0.90874,-1.10712 -1.2062,-1.80113 -0.29747,-0.69403 -0.4462,-1.42283 -0.4462,-2.18676 0,-0.88847 0.19646,-1.72569 0.58939,-2.51153 0.39292,-0.7857 0.94917,-1.45039 1.6689,-1.99396 0.30841,-0.23512 0.49013,-0.54526 0.5453,-0.93091 0.055,-0.38548 -0.0349,-0.73258 -0.26988,-1.04097 -0.22769,-0.31573 -0.53421,-0.49934 -0.91984,-0.55072 -0.38562,-0.0514 -0.73635,0.0404 -1.05207,0.27543 -1.07235,0.80044 -1.90389,1.79193 -2.49516,2.97421 -0.59128,1.18242 -0.88685,2.44191 -0.88685,3.77845 0,1.14576 0.22405,2.23988 0.67199,3.28277 0.44809,1.04289 1.05019,1.94242 1.80668,2.69894 0.75637,0.75636 1.65606,1.35871 2.69893,1.80641 1.04289,0.44808 2.13714,0.67226 3.28277,0.67226 1.14563,0 2.23989,-0.22418 3.28277,-0.67226 1.04287,-0.44782 1.94256,-1.05005 2.69892,-1.80641 0.75636,-0.75637 1.35846,-1.65606 1.80654,-2.69894 0.44796,-1.04288 0.67187,-2.13713 0.67187,-3.28277 0,-1.33654 -0.29517,-2.59603 -0.88644,-3.77845 z m -7.57387,3.77859 c 0.38183,0 0.71256,-0.1394 0.99136,-0.41861 0.27906,-0.27894 0.41888,-0.60953 0.41888,-0.99135 v -7.0504 c 0,-0.38198 -0.13967,-0.71243 -0.41888,-0.99136 -0.27881,-0.27921 -0.60939,-0.41874 -0.99136,-0.41874 -0.38196,0 -0.71242,0.13966 -0.99149,0.41874 -0.27907,0.27894 -0.4186,0.60952 -0.4186,0.99136 v 7.0504 c 0,0.38181 0.13952,0.71242 0.4186,0.99135 0.27907,0.27922 0.60966,0.41861 0.99149,0.41861 z"
         fill="url(#b)"
         fill-rule="evenodd"
         id="path18"
         style="fill:url(#b)" />
    </g>
  </g>
</svg>
