<?xml version="1.0" encoding="UTF-8" standalone="no"?>
<svg
   height="48"
   width="48"
   version="1.1"
   id="svg29"
   sodipodi:docname="simplescreenrecorder.svg"
   inkscape:version="1.1.2 (0a00cf5339, 2022-02-04, custom)"
   xmlns:inkscape="http://www.inkscape.org/namespaces/inkscape"
   xmlns:sodipodi="http://sodipodi.sourceforge.net/DTD/sodipodi-0.dtd"
   xmlns="http://www.w3.org/2000/svg"
   xmlns:svg="http://www.w3.org/2000/svg">
  <defs
     id="defs33">
    <linearGradient
       id="a-3"
       gradientTransform="matrix(1.0638147,0,0,1,9.758108,-0.061865)"
       gradientUnits="userSpaceOnUse"
       x1="368.96432"
       x2="368.96432"
       y1="545.75293"
       y2="517.39703">
      <stop
         offset="0"
         stop-color="#c61423"
         id="stop2-6" />
      <stop
         offset="1"
         stop-color="#ff4c63"
         id="stop4-7" />
    </linearGradient>
  </defs>
  <sodipodi:namedview
     id="namedview31"
     pagecolor="#ffffff"
     bordercolor="#666666"
     borderopacity="1.0"
     inkscape:pageshadow="2"
     inkscape:pageopacity="0.0"
     inkscape:pagecheckerboard="0"
     showgrid="false"
     inkscape:snap-page="true"
     inkscape:zoom="10.709721"
     inkscape:cx="5.8825061"
     inkscape:cy="33.380888"
     inkscape:window-width="1920"
     inkscape:window-height="1026"
     inkscape:window-x="0"
     inkscape:window-y="28"
     inkscape:window-maximized="1"
     inkscape:current-layer="svg29" />
  <linearGradient
     id="a"
     gradientUnits="userSpaceOnUse"
     x1="399.57144"
     x2="399.57144"
     y1="545.79797"
     y2="517.79797">
    <stop
       offset="0"
       stop-color="#3889e9"
       id="stop2" />
    <stop
       offset="1"
       stop-color="#5ea5fb"
       id="stop4" />
  </linearGradient>
  <linearGradient
     id="b"
     gradientUnits="userSpaceOnUse"
     x1="400.55615"
     x2="400.55615"
     y1="546.92657"
     y2="516.4751">
    <stop
       offset="0"
       stop-color="#2e3e46"
       id="stop7" />
    <stop
       offset="1"
       stop-color="#47606a"
       id="stop9" />
  </linearGradient>
  <linearGradient
     id="c"
     gradientUnits="userSpaceOnUse"
     x1="337.80704"
     x2="337.99731"
     y1="551.86993"
     y2="547.47272">
    <stop
       offset="0"
       stop-color="#ff9300"
       id="stop12" />
    <stop
       offset="1"
       stop-color="#ffd702"
       id="stop14" />
  </linearGradient>
  <rect
     style="fill:none"
     id="rect884"
     width="48"
     height="48"
     x="0"
     y="0" />
  <g
     id="g852"
     transform="matrix(0.58333335,0,0,0.58333335,9.9416648,9.9463554)">
    <g
       transform="matrix(1.031659,0,0,1.031659,-397.4719,-516.39241)"
       id="g21">
      <rect
         fill="url(#a)"
         height="28.0625"
         opacity="0.988"
         ry="2"
         transform="matrix(1.3694242,0,0,1.3694242,-141.44031,-204.31678)"
         width="33.975594"
         x="384.6958"
         y="517.73608"
         id="rect7"
         style="fill:url(#a-3)" />
      <g
         fill="#ffffff"
         id="g19">
        <path
           d="m 294.90044,506.26511 v 1 4 h 1 v -4 h 4 v -1 z"
           opacity="0.75"
           transform="matrix(0.97078178,0,0,0.97078178,102.18123,16.595155)"
           id="path9" />
        <path
           d="m 294.90044,538.56511 h 1 4 v -1 h -4 v -4 h -1 z"
           opacity="0.75"
           transform="matrix(0.97078178,0,0,0.97078178,102.18123,16.595155)"
           id="path11" />
        <path
           d="m 336.2007,538.06511 v -1 -4 h -1 v 4 h -4 v 1 z"
           opacity="0.75"
           transform="matrix(0.97078178,0,0,0.97078178,102.18123,16.595155)"
           id="path13" />
        <path
           d="m 336.3007,506.56472 h -1 -4 v 1 h 4 v 4 h 1 z"
           opacity="0.75"
           transform="matrix(0.97078178,0,0,0.97078178,102.18123,16.595155)"
           id="path15" />
        <circle
           cx="408.27432"
           cy="524.28314"
           opacity="0.77"
           r="5.400003"
           id="circle17" />
      </g>
    </g>
  </g>
</svg>
