<?xml version="1.0" encoding="UTF-8" standalone="no"?>
<svg
   height="48"
   width="48"
   version="1.1"
   id="svg26"
   sodipodi:docname="steam.svg"
   inkscape:version="1.1.2 (0a00cf5339, 2022-02-04)"
   xmlns:inkscape="http://www.inkscape.org/namespaces/inkscape"
   xmlns:sodipodi="http://sodipodi.sourceforge.net/DTD/sodipodi-0.dtd"
   xmlns:xlink="http://www.w3.org/1999/xlink"
   xmlns="http://www.w3.org/2000/svg"
   xmlns:svg="http://www.w3.org/2000/svg">
  <defs
     id="defs30">
    <linearGradient
       inkscape:collect="always"
       xlink:href="#b"
       id="linearGradient855"
       gradientUnits="userSpaceOnUse"
       x1="409.5757838354"
       y1="543.884979674575"
       x2="409.5757838354"
       y2="503.711109805" />
    <linearGradient
       inkscape:collect="always"
       xlink:href="#b"
       id="linearGradient857"
       gradientUnits="userSpaceOnUse"
       x1="409.5757838354"
       y1="543.884979674575"
       x2="409.5757838354"
       y2="503.711109805" />
  </defs>
  <sodipodi:namedview
     id="namedview28"
     pagecolor="#ffffff"
     bordercolor="#666666"
     borderopacity="1.0"
     inkscape:pageshadow="2"
     inkscape:pageopacity="0.0"
     inkscape:pagecheckerboard="0"
     showgrid="false"
     showguides="true"
     inkscape:guide-bbox="true"
     inkscape:snap-page="true"
     inkscape:zoom="15.145833"
     inkscape:cx="24"
     inkscape:cy="23.933975"
     inkscape:window-width="1920"
     inkscape:window-height="1026"
     inkscape:window-x="0"
     inkscape:window-y="28"
     inkscape:window-maximized="1"
     inkscape:current-layer="svg26" />
  <linearGradient
     id="a">
    <stop
       offset="0"
       stop-color="#d8d8d8"
       id="stop2" />
    <stop
       offset="1"
       stop-color="#fff"
       id="stop4" />
  </linearGradient>
  <linearGradient
     id="b"
     gradientUnits="userSpaceOnUse"
     x1="409.5757838354"
     x2="409.5757838354"
     y1="543.884979674575"
     y2="503.711109805">
    <stop
       offset="0"
       stop-color="#2e3e46"
       id="stop7" />
    <stop
       offset="1"
       stop-color="#47606a"
       id="stop9" />
  </linearGradient>
  <linearGradient
     id="c"
     gradientUnits="userSpaceOnUse"
     x1="408.46903765779"
     x2="408.366680747122"
     xlink:href="#a"
     y1="545.604244754228"
     y2="501.78707727895" />
  <linearGradient
     id="d"
     gradientUnits="userSpaceOnUse"
     x1="404.231238429901"
     x2="404.231238429901"
     xlink:href="#a"
     y1="537.381588518265"
     y2="507.839292081699" />
  <rect
     style="fill:none"
     id="rect883"
     width="48"
     height="48"
     x="0"
     y="0" />
  <g
     id="g853"
     transform="matrix(0.63636422,0,0,0.63636422,8.7272465,8.7272439)">
    <g
       transform="translate(-384.57143,-499.798)"
       id="g24">
      <rect
         fill="url(#b)"
         height="40.173874"
         ry="20.086937"
         width="40.173912"
         x="388.48447"
         y="503.71112"
         id="rect14"
         style="fill:url(#linearGradient855)" />
      <rect
         fill="url(#b)"
         height="40.173874"
         ry="20.086937"
         width="40.173912"
         x="388.48447"
         y="503.71112"
         id="rect16"
         style="fill:url(#linearGradient857)" />
      <path
         d="m 416.76088,510.37222 c -4.36777,0 -7.91349,3.52416 -7.95312,7.88281 l -4.95508,7.09961 c -0.20186,-0.0202 -0.40992,-0.0312 -0.61719,-0.0312 -1.10742,0 -2.14032,0.3047 -3.02929,0.83594 l -11.64258,-4.11524 c -0.0155,0.18067 -0.0283,0.36095 -0.0391,0.54297 l 0.45117,0.45117 c 0.18667,0.73728 0.56418,1.40011 1.08593,1.92188 l 2.35352,2.35351 c 0.12888,0.18174 0.26816,0.35511 0.42383,0.51368 l -2.49024,-2.49024 -1.84179,-0.6582 c 0.093,2.17477 0.54558,4.24849 1.27148,6.1875 l 11.72461,11.72461 c 2.19952,0.82343 4.57453,1.29492 7.06836,1.29492 11.12816,0 20.08789,-8.95973 20.08789,-20.08789 0,-1.95753 -0.29112,-3.84259 -0.80859,-5.62891 l -5.46485,-5.46484 c -1.44018,-1.44018 -3.42897,-2.33203 -5.625,-2.33203 z"
         fill-opacity="0.127168"
         id="path18" />
      <path
         d="m 387.97637,529.33583 9.49272,3.39293 c 0.58079,2.66943 2.96002,4.67698 5.79935,4.67698 3.07544,0 5.61454,-2.35789 5.90847,-5.35824 l 7.61588,-5.57222 c 4.39149,0 7.95656,-3.55311 7.95656,-7.94341 0,-4.39276 -3.56469,-7.95656 -7.95656,-7.95656 -4.36777,0 -7.91252,3.52368 -7.95215,7.88232 l -4.95646,7.10066 c -0.20186,-0.0202 -0.40848,-0.0309 -0.61574,-0.0309 -1.10742,0 -2.14172,0.30287 -3.0307,0.83412 l -12.54322,-4.43321 m 29.09827,-8.73284 c 2.94242,0 5.33637,2.39391 5.33637,5.33637 -1e-5,2.94257 -2.39395,5.32333 -5.33637,5.32333 -2.94243,0 -5.33206,-2.38076 -5.33206,-5.32333 0,-2.94246 2.38963,-5.33637 5.33206,-5.33637 z m 0.022,1.04801 c -2.35152,0 -4.25776,1.91055 -4.25776,4.26217 0,2.35153 1.90624,4.26208 4.25776,4.26208 2.35161,0 4.26212,-1.91055 4.26212,-4.26208 0,-2.35162 -1.91051,-4.26217 -4.26212,-4.26217 z m -13.54622,12.85625 c 2.42065,0 4.36693,1.94629 4.36693,4.36701 -2e-5,2.42059 -1.94628,4.3669 -4.36693,4.3669 -1.68377,0 -3.13546,-0.9397 -3.86474,-2.32757 0.71811,0.28979 1.43567,0.57717 2.15291,0.86896 1.77981,0.71522 3.80871,-0.14562 4.52414,-1.9258 0.7154,-1.77977 -0.15442,-3.80025 -1.93456,-4.51537 l -1.82103,-0.7293 c 0.30305,-0.0655 0.61971,-0.10496 0.94325,-0.10496 z"
         fill="url(#d)"
         id="path20"
         style="fill:url(#d)" />
      <rect
         fill="none"
         height="42.10392"
         ry="21.05196"
         stroke="url(#c)"
         stroke-width="1.89604"
         width="42.103958"
         x="387.51947"
         y="502.74606"
         id="rect22"
         style="stroke:url(#c)" />
    </g>
  </g>
</svg>
