<?xml version="1.0" encoding="UTF-8" standalone="no"?>
<svg
   height="36"
   width="36"
   version="1.1"
   id="svg21"
   sodipodi:docname="sys.svg"
   inkscape:version="1.1.2 (0a00cf5339, 2022-02-04)"
   xmlns:inkscape="http://www.inkscape.org/namespaces/inkscape"
   xmlns:sodipodi="http://sodipodi.sourceforge.net/DTD/sodipodi-0.dtd"
   xmlns="http://www.w3.org/2000/svg"
   xmlns:svg="http://www.w3.org/2000/svg">
  <defs
     id="defs25" />
  <sodipodi:namedview
     id="namedview23"
     pagecolor="#ffffff"
     bordercolor="#666666"
     borderopacity="1.0"
     inkscape:pageshadow="2"
     inkscape:pageopacity="0.0"
     inkscape:pagecheckerboard="0"
     showgrid="false"
     inkscape:zoom="10.709721"
     inkscape:cx="47.106736"
     inkscape:cy="11.998445"
     inkscape:window-width="1920"
     inkscape:window-height="1026"
     inkscape:window-x="0"
     inkscape:window-y="28"
     inkscape:window-maximized="1"
     inkscape:current-layer="svg21"
     width="36px"
     inkscape:snap-page="true"
     inkscape:snap-bbox="true"
     inkscape:bbox-paths="true"
     inkscape:bbox-nodes="true"
     inkscape:snap-bbox-edge-midpoints="true"
     inkscape:snap-bbox-midpoints="true"
     inkscape:snap-global="false" />
  <linearGradient
     gradientUnits="userSpaceOnUse"
     x1="0"
     x2="47"
     y1="23.5"
     y2="23.5"
     id="linearGradient8">
    <stop
       offset="0"
       stop-color="#a9a3d4"
       id="stop2" />
    <stop
       offset=".47001833"
       stop-color="#87baff"
       id="stop4" />
    <stop
       offset="1"
       stop-color="#89ec85"
       id="stop6" />
  </linearGradient>
  <linearGradient
     id="a"
     gradientUnits="userSpaceOnUse"
     x1="408.57138"
     x2="408.57138"
     y1="543.7981"
     y2="503.79807"
     gradientTransform="matrix(1.1,0,0,1.1,-425.42858,-552.1778)">
    <stop
       offset="0"
       stop-color="#97a9b1"
       id="stop10" />
    <stop
       offset="1"
       stop-color="#cfdce1"
       id="stop12" />
  </linearGradient>
  <rect
     style="fill:#e7e8eb;fill-opacity:1;opacity:0"
     id="rect850"
     width="36"
     height="36"
     x="0"
     y="0" />
  <circle
     cx="76.682495"
     cy="-0.55257571"
     fill="url(#a)"
     r="0"
     id="circle844"
     style="fill:#d45500;stroke-width:1.5517" />
  <circle
     cx="10.383885"
     cy="-0.46790805"
     fill="url(#a)"
     r="0"
     id="circle850"
     style="fill:#d45500;stroke-width:2.54086" />
  <path
     id="path4"
     d="M 9.9,9 C 8.90586,9 8.1,9.80586 8.1,10.8 v 2.3625 H 27.9 V 10.8 C 27.9,9.80586 27.0945,9 26.1,9 H 18 Z M 9.8332039,9.9017576 A 0.9,0.9 0 0 1 10.8,10.8 0.9,0.9 0 0 1 9,10.8 0.9,0.9 0 0 1 9.8332039,9.9017576 Z m 2.7000001,0 A 0.9,0.9 0 0 1 13.5,10.8 a 0.9,0.9 0 0 1 -1.8,0 0.9,0.9 0 0 1 0.833204,-0.8982424 z m 2.7,0 A 0.9,0.9 0 0 1 16.2,10.8 a 0.9,0.9 0 0 1 -1.8,0 0.9,0.9 0 0 1 0.833204,-0.8982424 z M 8.1,13.5 v 0.9 1.8 0.9 0.9 0.9 0.9 1.8 0.9 1.8 0.9 c 0,0.9945 0.80586,1.8 1.8,1.8 h 8.1 8.1 c 0.9945,0 1.8,-0.8055 1.8,-1.8 v -0.9 -1.8 -3.6 -1.8 -2.7 -0.9 z m 9.119532,0.9 h 1.560936 0.16875 c 0.0513,0.09 0.07897,0.0893 0.08437,0.179296 l 0.196875,1.260352 c 0.2295,0.09 0.441113,0.178945 0.632813,0.268945 l 0.998437,-0.718945 c 0.0423,-0.09 0.09856,-0.08966 0.16875,-0.08966 0.0612,0 0.119079,-3.52e-4 0.175782,0.08966 0.6039,0.54 0.990955,0.988945 1.160155,1.168945 0.0324,0.09 0.04922,0.09106 0.04922,0.181055 0,0.09 -0.01846,0.0893 -0.05624,0.179296 -0.0702,0.09 -0.189394,0.27 -0.358594,0.45 -0.1683,0.18 -0.295989,0.36 -0.379689,0.45 0.1215,0.27 0.21808,0.540706 0.288283,0.720704 l 1.286717,0.179296 c 0.0603,0 0.109849,0.08966 0.147649,0.08966 0.0369,0.09 0.05624,0.09106 0.05624,0.181054 v 1.529298 c 0,0.09 -0.01936,0.181053 -0.05624,0.181053 -0.0378,0.09 -0.08393,0.08966 -0.140629,0.08966 l -1.300783,0.179298 c -0.0891,0.27 -0.17972,0.540703 -0.274217,0.720702 0.164697,0.180001 0.414843,0.540001 0.752343,0.9 0.0468,0.09 0.07031,0.179298 0.07031,0.179298 0,0.09 -0.02098,0.181054 -0.06328,0.181054 -0.1269,0.180001 -0.358594,0.448596 -0.696094,0.808596 -0.3375,0.27 -0.557437,0.45 -0.660937,0.45 -0.0558,0 -0.117115,3.5e-4 -0.182813,-0.08966 l -0.970313,-0.718959 c -0.2061,0.09 -0.419343,0.178945 -0.639843,0.268945 -0.0747,0.63 -0.143607,1.080353 -0.203907,1.260353 -0.0333,0.18 -0.117229,0.270702 -0.253124,0.270702 h -1.560937 c -0.0657,0 -0.124478,-0.09141 -0.175782,-0.09141 -0.0468,0 -0.07285,-0.0893 -0.07735,-0.179296 l -0.196875,-1.260354 c -0.2295,-0.09 -0.440933,-0.178944 -0.632813,-0.268944 l -0.991407,0.718944 c -0.0469,0.09 -0.105496,0.08966 -0.17578,0.08966 -0.06562,0 -0.124216,3.5e-4 -0.175781,-0.08966 -0.590672,-0.54 -0.977278,-0.898944 -1.160158,-1.168946 -0.03276,0 -0.04922,-0.09106 -0.04922,-0.181054 0,0 0.01882,-0.0893 0.05626,-0.179298 0.07038,-0.09 0.189843,-0.18 0.358593,-0.45 0.16875,-0.179998 0.295267,-0.359998 0.379687,-0.45 -0.126611,-0.26999 -0.222564,-0.450696 -0.288264,-0.720696 l -1.28672,-0.179296 c -0.06102,0 -0.110128,3.52e-4 -0.14765,-0.08966 -0.03754,-0.09 -0.05626,-0.09105 -0.05626,-0.181056 V 18.98964 c 0,-0.09 0.01872,-0.09105 0.05626,-0.181054 0.03752,-0.09 0.08201,-0.08966 0.133593,-0.08966 l 1.307807,-0.179292 c 0.06562,-0.269999 0.157042,-0.451054 0.27422,-0.631054 -0.187472,-0.27 -0.438244,-0.62965 -0.752344,-0.98965 -0.0469,-0.09 -0.07031,-0.0893 -0.07031,-0.179296 0,-0.09 0.02108,-0.09105 0.06328,-0.181056 0.12186,-0.18 0.351561,-0.448944 0.689061,-0.718944 0.342182,-0.36 0.56483,-0.539649 0.66797,-0.539649 0.06092,0 0.121877,-3.51e-4 0.182811,0.08966 l 0.970314,0.718944 c 0.20592,-0.09 0.419344,-0.178944 0.639844,-0.268944 0.0747,-0.63 0.142707,-1.080352 0.203906,-1.260352 0.0324,-0.18 0.117228,-0.179296 0.253125,-0.179296 z M 18,18 c -0.4968,0 -0.920757,0.18 -1.272657,0.45 -0.3519,0.36 -0.527345,0.81 -0.527343,1.35 0,0.45 0.175443,0.898594 0.527343,1.258594 C 17.079243,21.418594 17.5032,21.6 18,21.6 c 0.496798,0 0.921656,-0.181406 1.272656,-0.541406 C 19.624556,20.698594 19.799998,20.25 19.8,19.8 19.8,19.26 19.624556,18.81 19.272656,18.45 18.921656,18.18 18.496798,18 18,18 Z"
     style="fill:#3b4252;fill-opacity:1;stroke-width:0.9" />
</svg>
