<?xml version="1.0" encoding="UTF-8" standalone="no"?>
<svg
   height="48"
   width="48"
   version="1.1"
   id="svg19"
   sodipodi:docname="terminal.svg"
   inkscape:version="1.1.2 (0a00cf5339, 2022-02-04)"
   xmlns:inkscape="http://www.inkscape.org/namespaces/inkscape"
   xmlns:sodipodi="http://sodipodi.sourceforge.net/DTD/sodipodi-0.dtd"
   xmlns="http://www.w3.org/2000/svg"
   xmlns:svg="http://www.w3.org/2000/svg">
  <defs
     id="defs23" />
  <sodipodi:namedview
     id="namedview21"
     pagecolor="#ffffff"
     bordercolor="#666666"
     borderopacity="1.0"
     inkscape:pageshadow="2"
     inkscape:pageopacity="0.0"
     inkscape:pagecheckerboard="0"
     showgrid="false"
     inkscape:snap-page="true"
     inkscape:zoom="15.145833"
     inkscape:cx="24"
     inkscape:cy="24"
     inkscape:window-width="1920"
     inkscape:window-height="1026"
     inkscape:window-x="0"
     inkscape:window-y="28"
     inkscape:window-maximized="1"
     inkscape:current-layer="svg19" />
  <linearGradient
     id="a"
     gradientTransform="matrix(1,0,0,0.97651015,-2.6e-5,11.327455)"
     gradientUnits="userSpaceOnUse"
     x1="409.57144"
     x2="409.57144"
     y1="542.79797"
     y2="507.798">
    <stop
       offset="0"
       stop-color="#2a2c2f"
       id="stop2" />
    <stop
       offset="1"
       stop-color="#424649"
       id="stop4" />
  </linearGradient>
  <rect
     style="fill:none"
     id="rect862"
     width="48"
     height="48"
     x="0"
     y="0" />
  <g
     id="g959"
     transform="translate(3.9891872,3.1008426)">
    <g
       id="g950"
       transform="matrix(0.81867325,0,0,0.81867325,0.36265343,1.2510024)">
      <g
         transform="translate(-384.57144,-500.29817)"
         id="g11">
        <rect
           fill-opacity="0.666667"
           height="33.201344"
           ry="1.562416"
           width="44"
           x="386.57144"
           y="508.19766"
           id="rect7" />
        <rect
           fill="url(#a)"
           height="33.201344"
           ry="1.562416"
           width="44"
           x="386.57144"
           y="507.19733"
           id="rect9"
           style="fill:url(#a)" />
      </g>
      <g
         transform="translate(-384.57143,-503.798)"
         id="g17">
        <path
           d="m 404.32135,524.78065 c -0.0483,-0.046 -0.11008,-0.0689 -0.18525,-0.0689 h -7.73589 c -0.0752,0 -0.13699,0.023 -0.18535,0.0689 -0.0483,0.046 -0.0724,0.10474 -0.0724,0.17635 v 0.49076 c 0,0.0715 0.0241,0.13034 0.0724,0.17627 0.0484,0.0459 0.11018,0.0689 0.18535,0.0689 h 7.73589 c 0.0752,0 0.13698,-0.0231 0.18525,-0.0689 0.0483,-0.0459 0.0724,-0.10474 0.0724,-0.17627 V 524.957 c 9e-5,-0.0716 -0.024,-0.13033 -0.0724,-0.17635 z"
           fill="#ffffff"
           stroke-width="0.096476"
           id="path13" />
        <path
           d="m 391.94402,517.5274 c -0.0537,-0.051 -0.11552,-0.0767 -0.18535,-0.0767 -0.0698,0 -0.13155,0.0256 -0.18525,0.0767 l -0.40294,0.38339 c -0.0537,0.0511 -0.0805,0.10983 -0.0805,0.17636 0,0.0666 0.0268,0.12525 0.0805,0.17636 l 3.16695,3.01318 -3.16695,3.01329 c -0.0537,0.0511 -0.0805,0.10991 -0.0805,0.17626 0,0.0666 0.0268,0.12525 0.0805,0.17635 l 0.40294,0.38329 c 0.0537,0.0512 0.11542,0.0766 0.18525,0.0766 0.0699,0 0.13165,-0.0255 0.18535,-0.0766 l 3.75515,-3.57283 c 0.0537,-0.0511 0.0805,-0.11001 0.0805,-0.17645 0,-0.0665 -0.0268,-0.12525 -0.0805,-0.17636 z"
           fill="#ffffff"
           stroke-width="0.096476"
           id="path15" />
      </g>
    </g>
  </g>
</svg>
