<?xml version="1.0" encoding="UTF-8" standalone="no"?>
<svg
   height="48"
   width="48"
   version="1.1"
   id="svg20"
   sodipodi:docname="tint2.svg"
   inkscape:version="1.1.2 (0a00cf5339, 2022-02-04)"
   xmlns:inkscape="http://www.inkscape.org/namespaces/inkscape"
   xmlns:sodipodi="http://sodipodi.sourceforge.net/DTD/sodipodi-0.dtd"
   xmlns="http://www.w3.org/2000/svg"
   xmlns:svg="http://www.w3.org/2000/svg">
  <defs
     id="defs24" />
  <sodipodi:namedview
     id="namedview22"
     pagecolor="#ffffff"
     bordercolor="#666666"
     borderopacity="1.0"
     inkscape:pageshadow="2"
     inkscape:pageopacity="0.0"
     inkscape:pagecheckerboard="0"
     showgrid="false"
     inkscape:snap-page="true"
     inkscape:zoom="15.145833"
     inkscape:cx="24"
     inkscape:cy="23.933975"
     inkscape:window-width="1920"
     inkscape:window-height="1026"
     inkscape:window-x="0"
     inkscape:window-y="28"
     inkscape:window-maximized="1"
     inkscape:current-layer="svg20" />
  <linearGradient
     id="a"
     gradientTransform="matrix(1.0454545,0,0,1.3529412,-18.571449,-186.22284)"
     gradientUnits="userSpaceOnUse"
     x1="409.57144"
     x2="409.57144"
     y1="542.79797"
     y2="507.798">
    <stop
       offset="0"
       stop-color="#3ec896"
       id="stop2" />
    <stop
       offset="1"
       stop-color="#66d9af"
       id="stop4" />
  </linearGradient>
  <clipPath
     id="b">
    <rect
       height="46"
       ry="2.164706"
       width="46"
       x="1.000012"
       y="1.000004"
       id="rect7" />
  </clipPath>
  <rect
     style="fill:none"
     id="rect870"
     width="48"
     height="48"
     x="0"
     y="0" />
  <g
     id="g846"
     transform="matrix(0.63636364,0,0,0.63636364,8.7272754,8.7272722)">
    <g
       transform="matrix(0.94623656,0,0,0.94623656,-362.60524,-471.87338)"
       id="g18">
      <rect
         fill="#1a1a1a"
         fill-opacity="0.666667"
         height="46"
         ry="2.164706"
         width="46"
         x="385.57144"
         y="501.298"
         id="rect10" />
      <rect
         fill="url(#a)"
         height="46"
         ry="2.164706"
         width="46"
         x="385.57144"
         y="500.798"
         id="rect12"
         style="fill:url(#a)" />
      <path
         clip-path="url(#b)"
         clip-rule="evenodd"
         d="m 24.042969,13 c -0.412941,-0.0013 -0.826222,0.02091 -1.238281,0.06641 -0.31892,0.0352 -0.553699,0.309427 -0.542969,0.628906 0.0358,1.02001 -0.570153,1.963587 -1.507813,2.347657 -0.857465,0.350237 -1.958989,0.120532 -2.626953,-0.525391 l -0.0957,-0.0957 -0.01953,-0.01953 c -0.21801,-0.21801 -0.566067,-0.239428 -0.810547,-0.04883 -0.65927,0.51724 -1.258607,1.108032 -1.779297,1.757812 -0.19689,0.24491 -0.174278,0.597156 0.04492,0.816406 l 0.02148,0.01953 0.111328,0.111328 0.01172,0.01367 c 0.665765,0.696109 0.867241,1.726819 0.492188,2.621093 -0.37973,0.90419 -1.319682,1.486329 -2.394532,1.486329 -0.34879,-0.0112 -0.596615,0.223905 -0.634765,0.541015 -0.0968,0.82642 -0.09876,1.66687 -0.0059,2.5 0.0128,0.11518 0.07269,0.219228 0.158203,0.304688 l 2.978516,2.978515 c -0.07415,0.557706 -0.332471,1.08927 -0.765625,1.486328 -0.23533,0.21618 -0.266669,0.576745 -0.06836,0.828125 0.26822,0.34163 0.558284,0.66766 0.865234,0.97461 l 70.710938,70.710939 c 0.27796,0.27796 0.56964,0.53938 0.875,0.78515 0.25204,0.20308 0.61941,0.17433 0.83789,-0.0664 0.361504,-0.39986 0.879859,-0.65271 1.423828,-0.74414 l 2.984375,2.98437 c 0.09435,0.0944 0.219448,0.15753 0.361329,0.17383 0.42034,0.049 0.843558,0.0742 1.267578,0.0742 0.40248,0 0.804541,-0.0236 1.207031,-0.0684 0.31899,-0.0352 0.555622,-0.30886 0.544922,-0.62891 -0.0369,-1.01944 0.569429,-1.96229 1.505859,-2.3457 0.863293,-0.35261 1.959332,-0.12215 2.626954,0.52344 l 0.0957,0.0957 0.0195,0.0195 c 0.21892,0.21887 0.56416,0.24113 0.81054,0.0508 0.65804,-0.51602 1.25811,-1.10819 1.78125,-1.75976 0.19647,-0.24399 0.17437,-0.59517 -0.0449,-0.81446 l -0.0215,-0.0215 -0.11133,-0.11133 c -0.67586,-0.696229 -0.88324,-1.733589 -0.50586,-2.63281 0.37392,-0.89215 1.27958,-1.492187 2.25195,-1.492187 l 0.13477,0.0039 c 0.31539,0.0256 0.60633,-0.217123 0.64453,-0.539063 0.0968,-0.826507 0.0968,-1.667504 0.004,-2.5 v -0.002 c -0.0136,-0.116815 -0.0738,-0.224209 -0.16015,-0.310547 l -2.97461,-2.974609 c 0.0748,-0.556707 0.33392,-1.086419 0.76562,-1.482422 0.23648,-0.21618 0.26472,-0.578698 0.0664,-0.830078 -0.26894,-0.34152 -0.55645,-0.665813 -0.86133,-0.970703 L 31.765625,16.208984 c -0.28002,-0.28001 -0.574329,-0.543512 -0.880859,-0.789062 -0.25072,-0.2012 -0.618528,-0.172341 -0.835938,0.06836 -0.359993,0.39869 -0.877833,0.652538 -1.421875,0.744141 l -2.984375,-2.984375 c -0.0942,-0.0942 -0.220881,-0.159201 -0.363281,-0.175781 C 24.868462,13.024766 24.45591,13.00125 24.042969,13 Z"
         fill-opacity="0.078431"
         fill-rule="evenodd"
         stroke-width="1.31742"
         transform="translate(384.57143,499.798)"
         id="path14" />
      <path
         clip-rule="evenodd"
         d="m 419.50232,522.57658 c -0.0348,-0.30925 -0.39537,-0.54164 -0.70715,-0.54164 -1.00806,0 -1.90258,-0.5919 -2.27773,-1.50729 -0.38325,-0.93758 -0.13613,-2.03101 0.61515,-2.72016 0.23648,-0.21618 0.26521,-0.57806 0.0669,-0.82944 -0.51594,-0.65518 -1.10236,-1.247 -1.74264,-1.75991 -0.25072,-0.2012 -0.61858,-0.1732 -0.83599,0.0675 -0.65567,0.72615 -1.83341,0.99603 -2.74349,0.6163 -0.94707,-0.39839 -1.54429,-1.35807 -1.48585,-2.38823 0.0192,-0.32358 -0.21724,-0.60492 -0.53984,-0.64249 -0.82167,-0.095 -1.65054,-0.098 -2.47466,-0.007 -0.31892,0.0352 -0.5554,0.30991 -0.54467,0.62939 0.0358,1.02001 -0.56858,1.96291 -1.50624,2.34698 -0.89918,0.36728 -2.06866,0.0997 -2.72302,-0.61998 -0.21626,-0.23705 -0.57814,-0.2662 -0.8301,-0.0698 -0.65927,0.51724 -1.25886,1.10955 -1.77955,1.75933 -0.20308,0.2526 -0.1732,0.61875 0.0657,0.83607 0.7656,0.69332 1.01281,1.79625 0.61507,2.74463 -0.37973,0.90419 -1.31862,1.48692 -2.39347,1.48692 -0.34879,-0.0112 -0.59722,0.22289 -0.63537,0.54 -0.0968,0.82642 -0.0979,1.66847 -0.005,2.5016 0.0345,0.31056 0.40608,0.54091 0.72131,0.54091 0.95788,-0.0245 1.87753,0.56857 2.26332,1.50737 0.38456,0.93758 0.13735,2.03036 -0.61507,2.72008 -0.23533,0.21618 -0.26521,0.57749 -0.0669,0.82887 0.51111,0.651 1.0976,1.24339 1.74017,1.76056 0.25204,0.20308 0.61875,0.17443 0.83723,-0.0663 0.65812,-0.72794 1.83578,-0.99733 2.74225,-0.61686 0.94945,0.39716 1.54667,1.35676 1.48822,2.38749 -0.0191,0.32374 0.21856,0.60557 0.53984,0.64257 0.42034,0.049 0.8432,0.0735 1.26722,0.0735 0.40248,0 0.80505,-0.0221 1.20754,-0.0669 0.31899,-0.0352 0.55531,-0.30991 0.54458,-0.62996 -0.0369,-1.01944 0.56858,-1.96234 1.50501,-2.34575 0.90524,-0.36974 2.06981,-0.0991 2.72425,0.61981 0.21749,0.23657 0.57683,0.26514 0.83018,0.0694 0.65804,-0.51602 1.25641,-1.10784 1.77955,-1.75941 0.203,-0.25204 0.17435,-0.61875 -0.0657,-0.836 -0.7656,-0.69332 -1.01403,-1.79641 -0.6163,-2.74414 0.37392,-0.89215 1.27794,-1.49117 2.25031,-1.49117 l 0.13604,0.004 c 0.31539,0.0256 0.60557,-0.21733 0.6438,-0.53927 0.0969,-0.82715 0.0981,-1.66847 0.005,-2.5016 z m -10.91345,4.91382 c -2.02331,0 -3.66911,-1.6458 -3.66911,-3.66911 0,-2.02324 1.6458,-3.66911 3.66911,-3.66911 2.02324,0 3.66903,1.64587 3.66903,3.66911 0,2.02331 -1.64579,3.66911 -3.66903,3.66911 z"
         fill="#ffffff"
         fill-opacity="0.846939"
         fill-rule="evenodd"
         stroke-width="1.31742"
         id="path16" />
    </g>
  </g>
</svg>
