<?xml version="1.0" encoding="UTF-8" standalone="no"?>
<svg
   height="48"
   width="48"
   version="1.1"
   id="svg29"
   sodipodi:docname="xdiagnose.svg"
   inkscape:version="1.1.2 (0a00cf5339, 2022-02-04)"
   xmlns:inkscape="http://www.inkscape.org/namespaces/inkscape"
   xmlns:sodipodi="http://sodipodi.sourceforge.net/DTD/sodipodi-0.dtd"
   xmlns:xlink="http://www.w3.org/1999/xlink"
   xmlns="http://www.w3.org/2000/svg"
   xmlns:svg="http://www.w3.org/2000/svg">
  <defs
     id="defs33">
    <linearGradient
       inkscape:collect="always"
       xlink:href="#a"
       id="linearGradient858"
       gradientUnits="userSpaceOnUse"
       x1="399.57144"
       y1="545.79797"
       x2="399.57144"
       y2="517.79797" />
    <linearGradient
       inkscape:collect="always"
       xlink:href="#a"
       id="linearGradient860"
       gradientUnits="userSpaceOnUse"
       x1="399.57144"
       y1="545.79797"
       x2="399.57144"
       y2="517.79797" />
  </defs>
  <sodipodi:namedview
     id="namedview31"
     pagecolor="#ffffff"
     bordercolor="#666666"
     borderopacity="1.0"
     inkscape:pageshadow="2"
     inkscape:pageopacity="0.0"
     inkscape:pagecheckerboard="0"
     showgrid="false"
     inkscape:snap-page="true"
     inkscape:zoom="15.145833"
     inkscape:cx="24"
     inkscape:cy="23.933975"
     inkscape:window-width="1920"
     inkscape:window-height="1026"
     inkscape:window-x="0"
     inkscape:window-y="28"
     inkscape:window-maximized="1"
     inkscape:current-layer="svg29" />
  <linearGradient
     id="a"
     gradientUnits="userSpaceOnUse"
     x1="399.57144"
     x2="399.57144"
     y1="545.79797"
     y2="517.79797">
    <stop
       offset="0"
       stop-color="#3889e9"
       id="stop2" />
    <stop
       offset="1"
       stop-color="#5ea5fb"
       id="stop4" />
  </linearGradient>
  <linearGradient
     id="b"
     gradientUnits="userSpaceOnUse"
     x1="400.55615"
     x2="400.55615"
     y1="546.92657"
     y2="516.4751">
    <stop
       offset="0"
       stop-color="#2e3e46"
       id="stop7" />
    <stop
       offset="1"
       stop-color="#47606a"
       id="stop9" />
  </linearGradient>
  <linearGradient
     id="c"
     gradientUnits="userSpaceOnUse"
     x1="337.80704"
     x2="337.99731"
     y1="551.86993"
     y2="547.47272">
    <stop
       offset="0"
       stop-color="#ff9300"
       id="stop12" />
    <stop
       offset="1"
       stop-color="#ffd702"
       id="stop14" />
  </linearGradient>
  <rect
     style="fill:none"
     id="rect884"
     width="48"
     height="48"
     x="0"
     y="0" />
  <g
     id="g856"
     transform="matrix(0.58333273,0,0,0.58333273,10.009109,10.000016)">
    <g
       transform="matrix(1.5511965,0,0,1.552208,-597.40541,-801.61944)"
       id="g25">
      <circle
         cx="400.57138"
         cy="531.79791"
         fill="url(#a)"
         r="0"
         id="circle17"
         style="fill:url(#linearGradient858)" />
      <g
         transform="matrix(1.0508504,0,0,1.0508504,-20.353166,-26.940048)"
         id="g23">
        <circle
           cx="400.57138"
           cy="531.79791"
           fill="url(#b)"
           r="13.999958"
           stroke="url(#b)"
           stroke-width="1.42742"
           id="circle19"
           style="fill:url(#b);stroke:url(#b)" />
        <circle
           cx="400.57138"
           cy="531.79791"
           fill="url(#a)"
           r="0"
           transform="matrix(1.5582299,0,0,1.5582299,-264.29829,-296.91072)"
           id="circle21"
           style="fill:url(#linearGradient860)" />
      </g>
    </g>
    <path
       d="m 336.57231,547.47633 c -0.345,-0.525 -1.2225,0.0525 -0.75,0.615 0.4575,0.5325 0.915,1.11 1.3875,1.7025 l -1.5075,1.9125 c -0.4275,0.51 0.42,1.125 0.8025,0.5775 l 1.3575,-1.8075 1.38,1.77 c 0.405,0.555 1.23,0.015 0.8175,-0.5475 l -1.53,-1.905 c 0.45,-0.5925 0.9225,-1.17 1.3725,-1.7025 0.4275,-0.4875 -0.33,-1.14 -0.72,-0.63 l -1.305,1.635 z"
       fill="url(#c)"
       transform="matrix(5.125934,0,0,5.125934,-1707.943,-2793.97)"
       id="path27"
       style="fill:url(#c)" />
  </g>
</svg>
